<svg width="32" height="32" viewBox="0 0 32 32" fill="none" xmlns="http://www.w3.org/2000/svg">
<path d="M13.3333 27.7334H3.91112C2.92928 27.7334 2.13334 26.9147 2.13334 25.9048V3.96197C2.13334 2.95208 2.92928 2.1334 3.91112 2.1334H21.6889C22.6707 2.1334 23.4667 2.95208 23.4667 3.96197V10.6667M6.57779 20.4191H11.5556M6.57779 14.9334H11.5556M6.57779 9.44768H19.0222" stroke="#E5E5E5" stroke-width="2"/>
<path fill-rule="evenodd" clip-rule="evenodd" d="M16 21.5467C16 17.3052 19.4385 13.8667 23.68 13.8667C27.9215 13.8667 31.36 17.3052 31.36 21.5467C31.36 25.7882 27.9215 29.2267 23.68 29.2267C23.4958 29.2267 23.3131 29.2202 23.132 29.2074L23.186 28.185L23.6888 28.2027C27.3608 28.1979 30.336 25.2198 30.336 21.5467C30.336 17.8707 27.356 14.8907 23.68 14.8907C20.004 14.8907 17.024 17.8707 17.024 21.5467C17.024 23.3604 17.7488 25.0039 18.9257 26.2049L18.9325 26.2118L19.072 26.3654V24.1067H20.096V28.2027H16V27.1787H18.4273L18.1874 26.9145C16.8346 25.5305 16 23.6356 16 21.5467ZM23.168 21.5467V16.9387H24.192V21.3346L27.114 24.2567L26.39 24.9807L23.318 21.9087C23.2219 21.8127 23.168 21.6825 23.168 21.5467Z" fill="#E5E5E5" stroke="#E5E5E5"/>
</svg>
