<svg width="138" height="27" viewBox="0 0 138 27" fill="none" xmlns="http://www.w3.org/2000/svg">
<path d="M18.6942 4.79271C15.395 3.29137 13.5128 6.04387 12.9841 7.29498C11.398 2.60334 6.30028 4.79271 5.37072 6.3566C4.44115 7.9205 3.48948 10.1099 5.37072 13.5505C6.78033 16.1285 10.975 20.1189 12.6669 21.6828V27C5.68794 21.6828 1.98697 16.8868 0.929546 14.1761C-0.127872 11.4653 -1.16414 5.23062 3.15012 1.97772C7.46439 -1.27518 11.2922 0.205311 12.6669 1.35217C21.5492 -2.6514 25.3064 4.79268 25.0608 8.54605C24.5532 16.303 16.4957 20.0146 12.689 21.37V16.6783C15.2268 15.74 18.1655 13.5505 18.6942 12.925C20.3024 11.3611 21.9933 6.29405 18.6942 4.79271Z" fill="#1BC8C8"/>
<path d="M40.7668 8.93162H45.203V6.6377H33.9055V8.93162H38.322V20.2457H40.7668V8.93162Z" fill="white"/>
<path d="M54.7785 16.0467V15.0358C54.7785 11.8282 53.0632 10.1369 50.3423 10.1369C47.168 10.1369 45.2555 12.4503 45.2555 15.3663C45.2555 18.3211 47.2272 20.3623 50.3029 20.3623C52.0774 20.3623 53.4378 19.6819 54.5025 18.4572L53.2406 17.0381C52.6294 17.7963 51.7422 18.3211 50.5001 18.3211C48.9425 18.3211 47.9369 17.563 47.6609 16.0467H54.7785ZM47.6412 14.3165C47.8778 12.9168 48.765 12.1003 50.224 12.1003C51.7028 12.1003 52.3928 12.9363 52.4126 14.3165H47.6412Z" fill="white"/>
<path d="M62.1642 19.7597L61.5727 17.9712C61.2178 18.1656 60.8629 18.2434 60.5277 18.2434C59.7982 18.2434 59.2461 17.7574 59.2461 16.8437V6.6377H56.8605V17.0964C56.8605 19.2154 58.2406 20.3623 59.9559 20.3623C60.6657 20.3623 61.4149 20.1679 62.1642 19.7597Z" fill="white"/>
<path d="M72.4924 16.0467V15.0358C72.4924 11.8282 70.7771 10.1369 68.0563 10.1369C64.8819 10.1369 62.9694 12.4503 62.9694 15.3663C62.9694 18.3211 64.9411 20.3623 68.0168 20.3623C69.7913 20.3623 71.1517 19.6819 72.2164 18.4572L70.9546 17.0381C70.3434 17.7963 69.4561 18.3211 68.214 18.3211C66.6564 18.3211 65.6509 17.563 65.3748 16.0467H72.4924ZM65.3551 14.3165C65.5917 12.9168 66.479 12.1003 67.938 12.1003C69.4167 12.1003 70.1068 12.9363 70.1265 14.3165H65.3551Z" fill="white"/>
<path d="M74.7715 20.2457H77.2164V14.5692H83.5059V20.2457H85.9507V6.6377H83.5059V12.2753H77.2164V6.6377H74.7715V20.2457Z" fill="white"/>
<path d="M97.754 16.0467V15.0358C97.754 11.8282 96.0387 10.1369 93.3179 10.1369C90.1435 10.1369 88.231 12.4503 88.231 15.3663C88.231 18.3211 90.2027 20.3623 93.2784 20.3623C95.0529 20.3623 96.4133 19.6819 97.478 18.4572L96.2162 17.0381C95.605 17.7963 94.7177 18.3211 93.4756 18.3211C91.918 18.3211 90.9125 17.563 90.6364 16.0467H97.754ZM90.6167 14.3165C90.8533 12.9168 91.7406 12.1003 93.1996 12.1003C94.6783 12.1003 95.3684 12.9363 95.3881 14.3165H90.6167Z" fill="white"/>
<path d="M109.674 17.1547V10.3702H107.348V11.8476C106.796 10.7784 105.613 10.1369 103.996 10.1369C100.94 10.1369 99.2445 12.4891 99.2445 15.2691C99.2445 18.0684 100.999 20.3623 103.976 20.3623C105.652 20.3623 106.954 19.6819 107.644 18.4378C107.841 19.6819 108.905 20.3623 110.108 20.3623C110.739 20.3623 111.429 20.1679 112.04 19.7597L111.488 18.0295C111.232 18.1851 110.976 18.2434 110.719 18.2434C110.167 18.2434 109.674 17.9323 109.674 17.1547ZM101.63 15.2496C101.63 13.5778 102.616 12.217 104.41 12.217C106.125 12.217 107.289 13.4611 107.289 15.2496C107.289 17.0575 106.125 18.2823 104.43 18.2823C102.754 18.2823 101.63 17.0381 101.63 15.2496Z" fill="white"/>
<path d="M118.926 19.7597L118.334 17.9712C117.979 18.1656 117.624 18.2434 117.289 18.2434C116.56 18.2434 116.008 17.7574 116.008 16.8437V6.6377H113.622V17.0964C113.622 19.2154 115.002 20.3623 116.717 20.3623C117.427 20.3623 118.177 20.1679 118.926 19.7597Z" fill="white"/>
<path d="M118.947 10.3702V12.4697H120.978V17.0187C120.978 19.1571 122.437 20.3623 124.369 20.3623C125.315 20.3623 126.281 20.0707 127.188 19.4875L126.558 17.7768C126.045 18.0879 125.473 18.2434 125 18.2434C124.093 18.2434 123.363 17.7379 123.363 16.6299V12.4697H126.341V10.3702H123.363V7.84298H120.978V10.3702H118.947Z" fill="white"/>
<path d="M128.871 6.6377V20.2457H131.257V14.9386C131.257 13.1501 132.361 12.217 133.682 12.217C134.865 12.217 135.614 12.9363 135.614 14.2776V20.2457H138V13.7527C138 11.3811 136.521 10.1369 134.431 10.1369C132.815 10.1369 131.849 10.8367 131.257 11.8087V6.6377H128.871Z" fill="white"/>
</svg>
