<svg width="19" height="23" viewBox="0 0 19 23" fill="none" xmlns="http://www.w3.org/2000/svg">
<path d="M18.209 12.5737C18.209 15.0976 18.2131 18.582 18.2069 21.106C18.2027 22.4159 17.6233 22.9817 16.1892 22.9874C11.4995 23.0047 6.8119 23.0028 2.12218 22.9894C0.640231 22.9855 0.0295256 22.4121 0.0274413 21.058C0.0170197 16.0734 0.0670433 10.1283 0.000345129 5.14366C-0.0246667 3.2852 1.31347 2.96874 2.81834 3.10491C3.17059 3.13752 3.39987 3.31588 3.39153 3.66686C3.38319 4.0236 3.12891 4.14059 2.78291 4.19813C1.11754 4.47047 1.11754 4.47622 1.11754 6.06809C1.11754 10.5426 1.11546 15.9755 1.11962 20.45C1.11962 21.7983 1.2155 21.8846 2.63284 21.8846C7.00991 21.8866 11.3849 21.8866 15.762 21.8846C17.048 21.8846 17.1126 21.8252 17.1147 20.6361C17.1168 15.9065 17.1001 10.2165 17.1314 5.48697C17.1376 4.59322 16.95 4.04853 15.812 4.19045C15.3555 4.24799 14.8303 4.21347 14.8699 3.60165C14.9032 3.06656 15.393 3.103 15.812 3.08957C17.6128 3.02628 18.209 3.54603 18.209 5.19161C18.211 7.65229 18.209 10.113 18.209 12.5737Z" fill="#252E4B"/>
<path d="M7.09263 11.0672C6.85085 12.053 6.62574 13.0426 6.35895 14.0227C6.08173 15.0392 5.17089 15.5225 4.07453 15.2732C3.70978 15.1907 3.4013 15.0238 3.44507 14.6345C3.48467 14.2912 3.78065 14.1473 4.12873 14.1991C4.99997 14.3276 5.24175 13.9114 5.36473 13.198C5.53564 12.1949 5.8337 11.2072 6.09632 10.2175C6.23806 9.68244 6.42565 9.08405 7.14265 9.06871C7.9201 9.05144 8.15563 9.68244 8.29736 10.2406C8.79135 12.193 9.23739 14.155 9.74805 16.2992C10.2337 15.3384 10.2441 14.4274 10.4817 13.5758C10.6526 12.9602 10.711 12.3119 11.0778 11.7538C11.4905 11.1228 12.2471 11.0959 12.6494 11.7308C12.887 12.1086 13.0392 12.5516 13.1309 12.9832C13.2705 13.6506 13.281 14.3506 14.3669 14.2183C14.6274 14.1857 14.8046 14.4197 14.8234 14.6594C14.8442 14.9529 14.6274 15.1159 14.3502 15.2214C13.5853 15.5129 12.5306 15.0545 12.2305 14.3142C12.1012 13.9958 12.1992 13.6027 11.7803 13.292C11.5447 14.318 11.3196 15.2943 11.0945 16.2705C11.0362 16.5198 10.982 16.7691 10.9069 17.0146C10.7402 17.5478 10.5401 18.127 9.81683 18.1289C9.09357 18.1309 8.8643 17.5612 8.7309 17.0204C8.239 15.0353 7.77212 13.0465 7.29481 11.0576C7.22394 11.0633 7.15933 11.0653 7.09263 11.0672Z" fill="#1BC8C8"/>
<path d="M9.11661 6.31003C7.72637 6.31003 6.33821 6.29852 4.94797 6.31578C4.30392 6.32345 4.02045 6.10673 3.98918 5.47765C3.91623 4.01812 4.25181 2.7964 5.90467 2.22295C6.28194 2.09253 6.37782 1.79909 6.53206 1.5114C7.05314 0.540934 7.88686 0.00775359 9.0916 8.1926e-05C10.3339 -0.00758974 11.2176 0.523673 11.7429 1.5325C11.9325 1.89498 12.141 2.13664 12.562 2.30925C14.0023 2.89997 14.7213 4.52636 14.2086 5.87274C14.0439 6.30619 13.6709 6.31194 13.2811 6.31194C11.895 6.31003 10.5048 6.31003 9.11661 6.31003ZM13.0852 5.15928C13.0372 3.93181 12.7767 3.46 11.8283 3.25287C11.1551 3.10519 10.8779 2.80408 10.7236 2.20952C10.5235 1.43277 9.90032 1.06644 9.02073 1.10672C8.18492 1.14508 7.63466 1.54017 7.52419 2.30158C7.44082 2.88846 7.07606 3.06875 6.52789 3.21067C5.37109 3.51179 5.08137 4.03154 5.37317 5.15928C7.91187 5.15928 10.4589 5.15928 13.0852 5.15928Z" fill="#252E4B"/>
</svg>
