<svg width="18" height="18" viewBox="0 0 18 18" fill="none" xmlns="http://www.w3.org/2000/svg">
<path fill-rule="evenodd" clip-rule="evenodd" d="M3.16116 4.70197C2.79772 5.01483 2.47055 5.34084 2.17834 5.66552C1.47343 6.44875 0.965629 7.23029 0.633734 7.81599C0.467505 8.10934 0.344621 8.35495 0.262578 8.52898C0.221538 8.61603 0.19066 8.6853 0.169638 8.73381C0.159125 8.75808 0.151072 8.77716 0.145439 8.79069L0.1388 8.80679L0.136832 8.81164L0.136184 8.81325L0.135944 8.81385C0.135847 8.81409 0.13576 8.81431 0.599998 9L0.13576 8.81431C0.0880781 8.93351 0.0880781 9.06649 0.13576 9.18569L0.599998 9C0.13576 9.18569 0.135847 9.18591 0.135944 9.18615L0.136184 9.18675L0.136832 9.18836L0.1388 9.19321L0.145439 9.20931C0.151072 9.22284 0.159125 9.24193 0.169638 9.26619C0.19066 9.3147 0.221538 9.38397 0.262578 9.47102C0.344621 9.64505 0.467505 9.89066 0.633734 10.184C0.965629 10.7697 1.47343 11.5512 2.17834 12.3345C3.58886 13.9017 5.81399 15.5 8.99998 15.5C10.5584 15.5 11.8869 15.1176 13.0026 14.5435L12.255 13.7958C11.3253 14.2257 10.2447 14.5 8.99998 14.5C6.18597 14.5 4.21111 13.0983 2.92164 11.6655C2.27655 10.9488 1.80936 10.2303 1.50376 9.691C1.35124 9.42184 1.23975 9.1987 1.1671 9.0446L1.14626 9L1.1671 8.9554C1.23975 8.8013 1.35124 8.57816 1.50376 8.30901C1.80936 7.76971 2.27655 7.05125 2.92164 6.33448C3.20435 6.02036 3.52 5.70773 3.87022 5.41104L3.16116 4.70197ZM6.32863 7.86945C6.18142 8.21686 6.1 8.59892 6.1 9C6.1 10.6016 7.39837 11.9 9 11.9C9.40107 11.9 9.78313 11.8186 10.1306 11.6714L9.33053 10.8714C9.22319 10.8902 9.11274 10.9 9 10.9C7.95066 10.9 7.1 10.0493 7.1 9C7.1 8.88726 7.10982 8.77681 7.12865 8.66946L6.32863 7.86945ZM8.66956 7.12863L7.86952 6.3286C8.21692 6.18141 8.59895 6.1 9 6.1C10.6016 6.1 11.9 7.39837 11.9 9C11.9 9.40105 11.8186 9.78308 11.6714 10.1305L10.8714 9.33044C10.8902 9.22312 10.9 9.11271 10.9 9C10.9 7.95066 10.0493 7.1 9 7.1C8.88729 7.1 8.77687 7.10981 8.66956 7.12863ZM14.1298 12.5889C14.48 12.2922 14.7957 11.9796 15.0783 11.6655C15.7234 10.9488 16.1906 10.2303 16.4962 9.69099C16.6488 9.42184 16.7602 9.1987 16.8329 9.0446L16.8537 9L16.8329 8.9554C16.7602 8.80131 16.6488 8.57816 16.4962 8.30901C16.1906 7.76971 15.7234 7.05125 15.0783 6.33448C13.7889 4.90173 11.814 3.5 8.99998 3.5C7.75526 3.5 6.67472 3.77426 5.74506 4.20414L4.99741 3.45649C6.11313 2.88239 7.44161 2.5 8.99998 2.5C12.186 2.5 14.4111 4.09827 15.8216 5.66552C16.5266 6.44875 17.0344 7.23029 17.3663 7.81599C17.5325 8.10934 17.6554 8.35494 17.7374 8.52898C17.7785 8.61603 17.8093 8.6853 17.8304 8.73381C17.8409 8.75807 17.8489 8.77716 17.8546 8.79069L17.8612 8.80679L17.8632 8.81164L17.8638 8.81325L17.8641 8.81384C17.8641 8.81409 17.8642 8.8143 17.4 9C17.8642 9.1857 17.8641 9.18592 17.8641 9.18616L17.8638 9.18675L17.8632 9.18836L17.8612 9.19321L17.8546 9.20931C17.8489 9.22284 17.8409 9.24193 17.8304 9.26619C17.8093 9.3147 17.7785 9.38397 17.7374 9.47102C17.6554 9.64506 17.5325 9.89066 17.3663 10.184C17.0344 10.7697 16.5266 11.5512 15.8216 12.3345C15.5294 12.6591 15.2023 12.9851 14.8389 13.298L14.1298 12.5889ZM17.4 9L17.8642 8.8143C17.9119 8.93351 17.9119 9.06649 17.8642 9.1857L17.4 9Z" fill="#16182F"/>
<path fill-rule="evenodd" clip-rule="evenodd" d="M15.5077 16.1998L1.8 2.49215L2.49234 1.7998L16.2 15.5075L15.5077 16.1998Z" fill="#16182F"/>
</svg>
