<svg width="35" height="38" viewBox="0 0 35 38" fill="none" xmlns="http://www.w3.org/2000/svg">
<path d="M26.0966 6.74529C21.4911 4.6323 18.8636 8.50618 18.1255 10.267C15.9113 3.66396 8.79504 6.74529 7.49739 8.94633C6.19974 11.1474 4.87123 14.2288 7.49739 19.0711C9.46517 22.6994 15.3209 28.3155 17.6827 30.5165V38C7.94023 30.5165 2.77376 23.7666 1.29762 19.9515C-0.178506 16.1364 -1.62511 7.36162 4.3975 2.78346C10.4201 -1.79469 15.7637 0.288956 17.6827 1.90305C30.0821 -3.7316 35.3271 6.74526 34.9843 12.0278C34.2757 22.9449 23.0276 28.1687 17.7136 30.0763V23.4732C21.2563 22.1525 25.3585 19.0711 26.0966 18.1907C28.3417 15.9896 30.7021 8.85829 26.0966 6.74529Z" fill="#1BC8C8"/>
</svg>
