<svg
    xmlns="http://www.w3.org/2000/svg"
    viewBox="0 0 54 52"
    id="vector">
    <defs>
        <clipPath id="clip_path_1">
            <path d="M 17 28 L 37 28 L 37 43 L 17 43 Z"/>
        </clipPath>
        <clipPath id="clip_path_2">
            <path d="M 17 28 L 37 28 L 37 43 L 17 43 Z"/>
        </clipPath>
    </defs>
    <path
        id="path"
        d="M 13.617 5.227 C 13.617 3.74 13.598 2.673 13.622 1.601 C 13.642 0.645 14.046 -0.026 15.089 0.004 C 15.994 0.029 16.422 0.645 16.427 1.481 C 16.457 4.987 16.462 8.493 16.432 11.998 C 16.427 12.975 15.886 13.586 14.882 13.521 C 13.977 13.461 13.642 12.8 13.622 11.963 C 13.598 10.892 13.617 9.82 13.617 8.478 C 10.852 8.177 8.244 8.102 5.695 8.468 C 3.663 8.758 3.077 10.506 3.077 12.424 C 3.072 17.267 3.072 22.11 3.072 26.948 C 3.072 32.792 3.043 38.637 3.087 44.482 C 3.112 47.952 4.298 49.134 7.698 49.139 C 20.654 49.154 33.615 49.154 46.572 49.139 C 49.834 49.134 51.118 47.787 51.133 44.371 C 51.158 37.776 51.069 31.18 51.182 24.589 C 51.217 22.546 50.68 21.88 48.594 21.895 C 35.392 21.985 22.184 21.94 8.982 21.94 C 8.328 21.94 7.663 21.975 7.014 21.905 C 6.212 21.815 5.562 21.419 5.597 20.497 C 5.631 19.631 6.187 19.14 7.024 19.07 C 7.678 19.015 8.333 19.04 8.992 19.04 C 22.032 19.04 35.072 19.04 48.112 19.04 C 48.998 19.04 49.883 19.04 50.907 19.04 C 51.31 16.28 51.281 13.711 51 11.177 C 50.808 9.429 49.632 8.378 47.792 8.332 C 47.138 8.318 46.478 8.332 45.824 8.318 C 44.662 8.292 43.235 8.352 43.294 6.715 C 43.353 5.102 44.805 5.268 45.942 5.237 C 51.394 5.107 53.987 7.676 53.992 13.206 C 53.997 23.642 54.002 34.075 53.992 44.512 C 53.987 49.55 51.546 52.009 46.591 52.009 C 33.551 52.009 20.511 52.014 7.471 52.009 C 2.9 52.009 0.145 49.53 0.09 44.867 C -0.028 34.185 -0.033 23.497 0.09 12.81 C 0.149 7.686 2.797 5.282 7.87 5.237 C 9.661 5.212 11.452 5.227 13.617 5.227 Z"
        fill="#33348e"/>
    <g id="group">
        <path
            id="path_1"
            clip-path="url(#clip_path_1)"
            d="M 34.739 36.845 C 32.722 41.381 30.321 43.133 26.536 42.988 C 25.583 42.953 24.707 42.679 23.843 42.338 C 23.11 42.047 22.478 41.64 22.87 40.734 C 23.246 39.864 23.939 40.009 24.715 40.232 C 28.08 41.201 30.281 40.436 31.702 37.868 C 31.762 37.762 31.746 37.617 31.774 37.413 C 31.129 37.158 30.117 37.5 29.885 36.492 C 29.685 35.626 30.409 35.218 30.889 34.708 C 31.294 34.277 31.754 33.893 32.154 33.458 C 33.022 32.517 33.846 32.583 34.687 33.489 C 35.091 33.92 35.543 34.312 35.955 34.74 C 36.483 35.292 37.34 35.794 36.864 36.704 C 36.343 37.68 35.459 37.339 34.739 36.845 Z"
            fill="#1bc8c8"/>
        <path
            id="path_2"
            clip-path="url(#clip_path_2)"
            d="M 22.227 33.374 C 24.515 34.001 24.66 34.491 23.123 36.056 C 23.031 36.15 22.935 36.24 22.843 36.334 C 20.634 38.518 18.521 38.141 17.172 35.319 C 16.928 34.809 16.908 34.307 17.365 33.884 C 17.777 33.499 17.965 33.519 19.297 34.025 C 21.086 29.383 23.627 27.654 28.097 28.054 C 28.553 28.097 29.021 28.191 29.45 28.348 C 30.246 28.638 31.302 28.869 30.954 30.022 C 30.59 31.222 29.674 30.759 28.821 30.5 C 25.92 29.61 23.423 30.677 22.227 33.374 Z"
            fill="#1bc8c8"/>
    </g>
    <path
        id="path_3"
        d="M 37.786 5.448 C 37.786 3.981 37.782 2.909 37.786 1.832 C 37.791 0.805 38.082 -0.031 39.282 0.009 C 40.316 0.044 40.645 0.8 40.645 1.727 C 40.655 5.057 40.66 8.388 40.645 11.718 C 40.641 12.74 40.306 13.576 39.11 13.511 C 38.072 13.456 37.831 12.69 37.777 11.763 C 37.708 10.627 38.028 9.45 37.393 8.082 C 32.423 8.082 27.369 8.123 22.316 8.052 C 21.154 8.037 19.206 8.784 19.166 6.795 C 19.132 4.762 21.1 5.498 22.252 5.478 C 27.31 5.403 32.369 5.448 37.786 5.448 Z"
        fill="#33348e"/>
</svg>
