<svg
    xmlns="http://www.w3.org/2000/svg"
    viewBox="0 0 14 14"
    id="vector">
    <path
        id="path"
        d="M 4.943 0.668 C 6.28 0.234 7.72 0.234 9.057 0.668 C 10.394 1.103 11.56 1.95 12.386 3.087 C 13.212 4.224 13.657 5.594 13.657 7 C 13.657 8.406 13.212 9.776 12.386 10.913 C 11.56 12.05 10.394 12.897 9.057 13.332 C 7.72 13.766 6.28 13.766 4.943 13.332 C 3.606 12.897 2.44 12.05 1.614 10.913 C 0.788 9.776 0.343 8.406 0.343 7 C 0.343 5.594 0.788 4.224 1.614 3.087 C 2.44 1.95 3.606 1.103 4.943 0.668 Z"
        fill="#ffb64a"/>
    <path
        id="path_1"
        d="M 5 8.7 C 5 9.363 5.537 9.9 6.2 9.9 L 7.8 9.9 C 8.463 9.9 9 9.363 9 8.7 C 9 8.037 8.463 7.5 7.8 7.5 L 6.2 7.5 C 5.537 7.5 5 6.963 5 6.3 C 5 5.637 5.537 5.1 6.2 5.1 L 7.8 5.1 C 8.463 5.1 9 5.637 9 6.3 M 7 4 L 7 5.1 M 7 11 L 7 9.9"
        fill="#ffb64a"
        stroke="#ffffff"
        stroke-width="0.8"/>
</svg>
