<svg width="18" height="18" viewBox="0 0 18 18" fill="none" xmlns="http://www.w3.org/2000/svg">
<path fill-rule="evenodd" clip-rule="evenodd" d="M3.16113 4.70197C2.7977 5.01483 2.47053 5.34084 2.17832 5.66552C1.47341 6.44875 0.965606 7.23029 0.633711 7.81599C0.467482 8.10934 0.344598 8.35495 0.262555 8.52898C0.221515 8.61603 0.190637 8.6853 0.169615 8.73381C0.159102 8.75808 0.151049 8.77716 0.145416 8.79069L0.138777 8.80679L0.136809 8.81164L0.136161 8.81325L0.135921 8.81385C0.135824 8.81409 0.135737 8.81431 0.599976 9L0.135737 8.81431C0.0880552 8.93351 0.0880552 9.06649 0.135737 9.18569L0.599976 9C0.135737 9.18569 0.135824 9.18591 0.135921 9.18615L0.136161 9.18675L0.136809 9.18836L0.138777 9.19321L0.145416 9.20931C0.151049 9.22284 0.159102 9.24193 0.169615 9.26619C0.190637 9.3147 0.221515 9.38397 0.262555 9.47102C0.344598 9.64505 0.467482 9.89066 0.633711 10.184C0.965606 10.7697 1.47341 11.5512 2.17832 12.3345C3.58884 13.9017 5.81397 15.5 8.99996 15.5C10.5584 15.5 11.8869 15.1176 13.0026 14.5435L12.255 13.7958C11.3253 14.2257 10.2447 14.5 8.99996 14.5C6.18595 14.5 4.21109 13.0983 2.92161 11.6655C2.27653 10.9488 1.80934 10.2303 1.50373 9.691C1.35122 9.42184 1.23973 9.1987 1.16708 9.0446L1.14623 9L1.16708 8.9554C1.23973 8.8013 1.35122 8.57816 1.50373 8.30901C1.80934 7.76971 2.27653 7.05125 2.92161 6.33448C3.20432 6.02036 3.51998 5.70773 3.8702 5.41104L3.16113 4.70197ZM6.32861 7.86945C6.1814 8.21686 6.09998 8.59892 6.09998 9C6.09998 10.6016 7.39835 11.9 8.99998 11.9C9.40105 11.9 9.78311 11.8186 10.1305 11.6714L9.33051 10.8714C9.22317 10.8902 9.11272 10.9 8.99998 10.9C7.95063 10.9 7.09998 10.0493 7.09998 9C7.09998 8.88726 7.10979 8.77681 7.12862 8.66946L6.32861 7.86945ZM8.66953 7.12863L7.8695 6.3286C8.2169 6.18141 8.59893 6.1 8.99998 6.1C10.6016 6.1 11.9 7.39837 11.9 9C11.9 9.40105 11.8186 9.78308 11.6714 10.1305L10.8713 9.33044C10.8902 9.22312 10.9 9.11271 10.9 9C10.9 7.95066 10.0493 7.1 8.99998 7.1C8.88727 7.1 8.77685 7.10981 8.66953 7.12863ZM14.1298 12.5889C14.48 12.2922 14.7956 11.9796 15.0783 11.6655C15.7234 10.9488 16.1906 10.2303 16.4962 9.69099C16.6487 9.42184 16.7602 9.1987 16.8329 9.0446L16.8537 9L16.8329 8.9554C16.7602 8.80131 16.6487 8.57816 16.4962 8.30901C16.1906 7.76971 15.7234 7.05125 15.0783 6.33448C13.7888 4.90173 11.814 3.5 8.99996 3.5C7.75524 3.5 6.6747 3.77426 5.74504 4.20414L4.99739 3.45649C6.1131 2.88239 7.44159 2.5 8.99996 2.5C12.1859 2.5 14.4111 4.09827 15.8216 5.66552C16.5265 6.44875 17.0343 7.23029 17.3662 7.81599C17.5325 8.10934 17.6553 8.35494 17.7374 8.52898C17.7784 8.61603 17.8093 8.6853 17.8303 8.73381C17.8408 8.75807 17.8489 8.77716 17.8545 8.79069L17.8612 8.80679L17.8631 8.81164L17.8638 8.81325L17.864 8.81384C17.8641 8.81409 17.8642 8.8143 17.4 9C17.8642 9.1857 17.8641 9.18592 17.864 9.18616L17.8638 9.18675L17.8631 9.18836L17.8612 9.19321L17.8545 9.20931C17.8489 9.22284 17.8408 9.24193 17.8303 9.26619C17.8093 9.3147 17.7784 9.38397 17.7374 9.47102C17.6553 9.64506 17.5325 9.89066 17.3662 10.184C17.0343 10.7697 16.5265 11.5512 15.8216 12.3345C15.5294 12.6591 15.2023 12.9851 14.8389 13.298L14.1298 12.5889ZM17.4 9L17.8642 8.8143C17.9119 8.93351 17.9119 9.06649 17.8642 9.1857L17.4 9Z" fill="#16182F"/>
<path fill-rule="evenodd" clip-rule="evenodd" d="M15.5076 16.1998L1.79993 2.49215L2.49227 1.7998L16.1999 15.5075L15.5076 16.1998Z" fill="#16182F"/>
</svg>
