<svg width="18" height="18" viewBox="0 0 18 18" fill="none" xmlns="http://www.w3.org/2000/svg">
<path d="M5.40005 8.5H4.90005V9.5H5.40005V8.5ZM12.6 9.5H13.1V8.5H12.6V9.5ZM5.40005 4.9H4.90005V5.9H5.40005V4.9ZM7.80005 5.9H8.30005V4.9H7.80005V5.9ZM12.6 0.6L12.9536 0.246447L12.8072 0.1H12.6V0.6ZM16.2 4.2H16.7V3.99289L16.5536 3.84645L16.2 4.2ZM9.60005 13.2L9.24649 13.5536L9.2465 13.5536L9.60005 13.2ZM9.00005 13.8L9.22366 14.2472L9.26398 14.2271L9.30005 14.2L9.00005 13.8ZM5.40005 9.5H12.6V8.5H5.40005V9.5ZM5.40005 5.9H7.80005V4.9H5.40005V5.9ZM15 16.9H3.00005V17.9H15V16.9ZM2.30005 16.2V1.8H1.30005V16.2H2.30005ZM3.00005 1.1H12.6V0.1H3.00005V1.1ZM15.7 4.2V16.2H16.7V4.2H15.7ZM12.2465 0.953554L15.8465 4.55355L16.5536 3.84645L12.9536 0.246447L12.2465 0.953554ZM3.00005 16.9C2.61345 16.9 2.30005 16.5866 2.30005 16.2H1.30005C1.30005 17.1389 2.06116 17.9 3.00005 17.9V16.9ZM15 17.9C15.9389 17.9 16.7 17.1389 16.7 16.2H15.7C15.7 16.5866 15.3866 16.9 15 16.9V17.9ZM2.30005 1.8C2.30005 1.4134 2.61345 1.1 3.00005 1.1V0.1C2.06116 0.1 1.30005 0.861117 1.30005 1.8H2.30005ZM6.47439 13.9581C6.61886 13.5247 7.02425 13.1314 7.53978 12.9929C8.02802 12.8617 8.64606 12.9531 9.24649 13.5536L9.9536 12.8464C9.11403 12.0069 8.13208 11.7983 7.28032 12.0271C6.45585 12.2486 5.78123 12.8753 5.52571 13.6419L6.47439 13.9581ZM9.2465 13.5536C9.28827 13.5953 9.3218 13.6335 9.34852 13.6679L10.1382 13.0544C10.0832 12.9836 10.0215 12.9144 9.9536 12.8464L9.2465 13.5536ZM9.34852 13.6679C9.4539 13.8036 9.44571 13.8668 9.44492 13.8736C9.44328 13.8875 9.43203 13.9351 9.34843 14.0111C9.26436 14.0875 9.13517 14.1655 8.97107 14.2322C8.80965 14.2977 8.63455 14.344 8.47553 14.3681C8.30929 14.3932 8.19367 14.3891 8.14107 14.3787C8.11289 14.3731 8.13914 14.3728 8.18388 14.4057C8.24238 14.4487 8.3199 14.5432 8.32603 14.6807C8.33104 14.7931 8.28336 14.8521 8.29203 14.8398C8.29739 14.8323 8.32479 14.7985 8.39756 14.7396C8.54227 14.6227 8.80109 14.4585 9.22366 14.2472L8.77644 13.3528C8.32643 13.5778 7.99468 13.7794 7.76885 13.962C7.65636 14.0529 7.55351 14.1524 7.47589 14.262C7.40158 14.367 7.3182 14.5272 7.32702 14.7252C7.33696 14.9484 7.45783 15.1131 7.59146 15.2113C7.71133 15.2995 7.8445 15.3394 7.94727 15.3597C8.15659 15.4011 8.39905 15.391 8.62512 15.3568C9.0709 15.2894 9.63958 15.098 10.0212 14.7509C10.219 14.5711 10.3995 14.3179 10.4381 13.9904C10.4774 13.6558 10.3578 13.3371 10.1382 13.0544L9.34852 13.6679ZM9.30005 14.2C9.52615 14.0304 9.74016 13.9074 9.94192 13.8201L9.5448 12.9023C9.26451 13.0236 8.98298 13.1878 8.70005 13.4L9.30005 14.2ZM9.94192 13.8201C10.7621 13.4651 11.4918 13.6573 12.2163 14.0023C12.3981 14.0889 12.5752 14.183 12.7529 14.2792C12.9268 14.3733 13.1077 14.473 13.2798 14.5602C13.6094 14.727 14.0019 14.9 14.4 14.9V13.9C14.2618 13.9 14.058 13.8332 13.7314 13.6679C13.5754 13.589 13.4132 13.4995 13.229 13.3998C13.0486 13.3021 12.8526 13.1977 12.6463 13.0995C11.8186 12.7053 10.7563 12.3781 9.5448 12.9023L9.94192 13.8201Z" fill="#252E4B"/>
</svg>
