<svg width="18" height="18" viewBox="0 0 18 18" fill="none" xmlns="http://www.w3.org/2000/svg">
<path fill-rule="evenodd" clip-rule="evenodd" d="M3.16126 4.70197C2.79782 5.01483 2.47065 5.34084 2.17844 5.66552C1.47353 6.44875 0.965728 7.23029 0.633833 7.81599C0.467604 8.10934 0.34472 8.35495 0.262677 8.52898C0.221637 8.61603 0.190759 8.6853 0.169737 8.73381C0.159224 8.75808 0.151171 8.77716 0.145538 8.79069L0.138899 8.80679L0.136931 8.81164L0.136283 8.81325L0.136043 8.81385C0.135946 8.81409 0.135859 8.81431 0.600098 9L0.135859 8.81431C0.0881773 8.93351 0.0881773 9.06649 0.135859 9.18569L0.600098 9C0.135859 9.18569 0.135946 9.18591 0.136043 9.18615L0.136283 9.18675L0.136931 9.18836L0.138899 9.19321L0.145538 9.20931C0.151171 9.22284 0.159224 9.24193 0.169737 9.26619C0.190759 9.3147 0.221637 9.38397 0.262677 9.47102C0.34472 9.64505 0.467604 9.89066 0.633833 10.184C0.965728 10.7697 1.47353 11.5512 2.17844 12.3345C3.58896 13.9017 5.81409 15.5 9.00008 15.5C10.5585 15.5 11.887 15.1176 13.0027 14.5435L12.2551 13.7958C11.3254 14.2257 10.2448 14.5 9.00008 14.5C6.18607 14.5 4.21121 13.0983 2.92174 11.6655C2.27665 10.9488 1.80946 10.2303 1.50386 9.691C1.35134 9.42184 1.23985 9.1987 1.1672 9.0446L1.14636 9L1.1672 8.9554C1.23985 8.8013 1.35134 8.57816 1.50386 8.30901C1.80946 7.76971 2.27665 7.05125 2.92174 6.33448C3.20444 6.02036 3.5201 5.70773 3.87032 5.41104L3.16126 4.70197ZM6.32873 7.86945C6.18152 8.21686 6.1001 8.59892 6.1001 9C6.1001 10.6016 7.39847 11.9 9.0001 11.9C9.40117 11.9 9.78323 11.8186 10.1306 11.6714L9.33063 10.8714C9.22329 10.8902 9.11284 10.9 9.0001 10.9C7.95076 10.9 7.1001 10.0493 7.1001 9C7.1001 8.88726 7.10992 8.77681 7.12875 8.66946L6.32873 7.86945ZM8.66966 7.12863L7.86962 6.3286C8.21702 6.18141 8.59905 6.1 9.0001 6.1C10.6017 6.1 11.9001 7.39837 11.9001 9C11.9001 9.40105 11.8187 9.78308 11.6715 10.1305L10.8715 9.33044C10.8903 9.22312 10.9001 9.11271 10.9001 9C10.9001 7.95066 10.0494 7.1 9.0001 7.1C8.88739 7.1 8.77697 7.10981 8.66966 7.12863ZM14.1299 12.5889C14.4801 12.2922 14.7957 11.9796 15.0784 11.6655C15.7235 10.9488 16.1907 10.2303 16.4963 9.69099C16.6489 9.42184 16.7603 9.1987 16.833 9.0446L16.8538 9L16.833 8.9554C16.7603 8.80131 16.6489 8.57816 16.4963 8.30901C16.1907 7.76971 15.7235 7.05125 15.0784 6.33448C13.789 4.90173 11.8141 3.5 9.00008 3.5C7.75536 3.5 6.67482 3.77426 5.74516 4.20414L4.99751 3.45649C6.11323 2.88239 7.44171 2.5 9.00008 2.5C12.1861 2.5 14.4112 4.09827 15.8217 5.66552C16.5266 6.44875 17.0345 7.23029 17.3664 7.81599C17.5326 8.10934 17.6555 8.35494 17.7375 8.52898C17.7786 8.61603 17.8094 8.6853 17.8305 8.73381C17.841 8.75807 17.849 8.77716 17.8547 8.79069L17.8613 8.80679L17.8633 8.81164L17.8639 8.81325L17.8642 8.81384C17.8642 8.81409 17.8643 8.8143 17.4001 9C17.8643 9.1857 17.8642 9.18592 17.8642 9.18616L17.8639 9.18675L17.8633 9.18836L17.8613 9.19321L17.8547 9.20931C17.849 9.22284 17.841 9.24193 17.8305 9.26619C17.8094 9.3147 17.7786 9.38397 17.7375 9.47102C17.6555 9.64506 17.5326 9.89066 17.3664 10.184C17.0345 10.7697 16.5266 11.5512 15.8217 12.3345C15.5295 12.6591 15.2024 12.9851 14.839 13.298L14.1299 12.5889ZM17.4001 9L17.8643 8.8143C17.912 8.93351 17.912 9.06649 17.8643 9.1857L17.4001 9Z" fill="#16182F"/>
<path fill-rule="evenodd" clip-rule="evenodd" d="M15.5077 16.2L1.80005 2.49234L2.49239 1.8L16.2 15.5077L15.5077 16.2Z" fill="#16182F"/>
</svg>
