<svg width="18" height="18" viewBox="0 0 18 18" fill="none" xmlns="http://www.w3.org/2000/svg">
<path d="M0.599976 9L0.135737 8.81431C0.0880552 8.93351 0.0880552 9.06649 0.135737 9.18569L0.599976 9ZM17.4 9L17.8642 9.1857C17.9119 9.06649 17.9119 8.93351 17.8642 8.8143L17.4 9ZM8.99996 14.5C6.18595 14.5 4.21109 13.0983 2.92161 11.6655C2.27653 10.9488 1.80934 10.2303 1.50373 9.691C1.35122 9.42184 1.23973 9.1987 1.16708 9.0446C1.13078 8.9676 1.10424 8.90796 1.08717 8.86858C1.07864 8.8489 1.07249 8.83429 1.06867 8.82512C1.06676 8.82053 1.06544 8.81731 1.0647 8.81549C1.06433 8.81458 1.0641 8.81403 1.06402 8.81383C1.06398 8.81373 1.06398 8.81372 1.06401 8.8138C1.06403 8.81384 1.06408 8.81396 1.06409 8.81398C1.06415 8.81413 1.06421 8.81431 0.599976 9C0.135737 9.18569 0.135824 9.18591 0.135921 9.18615C0.135965 9.18627 0.136072 9.18653 0.136161 9.18675C0.13634 9.1872 0.136556 9.18773 0.136809 9.18836C0.137315 9.18961 0.137971 9.19123 0.138777 9.19321C0.140388 9.19716 0.1426 9.20254 0.145416 9.20931C0.151049 9.22284 0.159102 9.24193 0.169615 9.26619C0.190637 9.3147 0.221515 9.38397 0.262555 9.47102C0.344598 9.64505 0.467482 9.89066 0.633711 10.184C0.965606 10.7697 1.47341 11.5512 2.17832 12.3345C3.58884 13.9017 5.81397 15.5 8.99996 15.5V14.5ZM0.599976 9C1.06421 9.18569 1.06415 9.18587 1.06409 9.18602C1.06408 9.18604 1.06403 9.18616 1.06401 9.1862C1.06398 9.18628 1.06398 9.18627 1.06402 9.18617C1.0641 9.18597 1.06433 9.18542 1.0647 9.18451C1.06544 9.18269 1.06676 9.17947 1.06867 9.17488C1.07249 9.16571 1.07864 9.1511 1.08717 9.13142C1.10424 9.09204 1.13078 9.0324 1.16708 8.9554C1.23973 8.8013 1.35122 8.57816 1.50373 8.30901C1.80934 7.76971 2.27653 7.05125 2.92161 6.33448C4.21109 4.90173 6.18595 3.5 8.99996 3.5V2.5C5.81397 2.5 3.58884 4.09827 2.17832 5.66552C1.47341 6.44875 0.965606 7.23029 0.633711 7.81599C0.467482 8.10934 0.344598 8.35495 0.262555 8.52898C0.221515 8.61603 0.190637 8.6853 0.169615 8.73381C0.159102 8.75808 0.151049 8.77716 0.145416 8.79069C0.1426 8.79746 0.140388 8.80284 0.138777 8.80679C0.137971 8.80877 0.137315 8.81039 0.136809 8.81164C0.136556 8.81227 0.13634 8.8128 0.136161 8.81325C0.136072 8.81347 0.135965 8.81374 0.135921 8.81385C0.135824 8.81409 0.135737 8.81431 0.599976 9ZM8.99996 3.5C11.814 3.5 13.7888 4.90173 15.0783 6.33448C15.7234 7.05125 16.1906 7.76971 16.4962 8.30901C16.6487 8.57816 16.7602 8.80131 16.8329 8.9554C16.8692 9.03241 16.8957 9.09204 16.9128 9.13142C16.9213 9.15111 16.9275 9.16572 16.9313 9.17489C16.9332 9.17947 16.9345 9.18269 16.9353 9.18451C16.9356 9.18542 16.9358 9.18598 16.9359 9.18618C16.936 9.18628 16.936 9.18629 16.9359 9.18621C16.9359 9.18617 16.9359 9.18604 16.9359 9.18602C16.9358 9.18587 16.9357 9.1857 17.4 9C17.8642 8.8143 17.8641 8.81409 17.864 8.81384C17.864 8.81373 17.8639 8.81347 17.8638 8.81325C17.8636 8.8128 17.8634 8.81227 17.8631 8.81164C17.8626 8.81038 17.862 8.80877 17.8612 8.80679C17.8596 8.80284 17.8573 8.79746 17.8545 8.79069C17.8489 8.77716 17.8408 8.75807 17.8303 8.73381C17.8093 8.6853 17.7784 8.61603 17.7374 8.52898C17.6553 8.35494 17.5325 8.10934 17.3662 7.81599C17.0343 7.23029 16.5265 6.44875 15.8216 5.66552C14.4111 4.09827 12.1859 2.5 8.99996 2.5V3.5ZM17.4 9C16.9357 8.8143 16.9358 8.81413 16.9359 8.81398C16.9359 8.81396 16.9359 8.81383 16.9359 8.81379C16.936 8.81371 16.936 8.81372 16.9359 8.81382C16.9358 8.81402 16.9356 8.81458 16.9353 8.81549C16.9345 8.81731 16.9332 8.82053 16.9313 8.82511C16.9275 8.83428 16.9213 8.84889 16.9128 8.86858C16.8957 8.90796 16.8692 8.9676 16.8329 9.0446C16.7602 9.1987 16.6487 9.42184 16.4962 9.69099C16.1906 10.2303 15.7234 10.9488 15.0783 11.6655C13.7888 13.0983 11.814 14.5 8.99996 14.5V15.5C12.1859 15.5 14.4111 13.9017 15.8216 12.3345C16.5265 11.5512 17.0343 10.7697 17.3662 10.184C17.5325 9.89066 17.6553 9.64506 17.7374 9.47102C17.7784 9.38397 17.8093 9.3147 17.8303 9.26619C17.8408 9.24193 17.8489 9.22284 17.8545 9.20931C17.8573 9.20254 17.8596 9.19716 17.8612 9.19321C17.862 9.19123 17.8626 9.18962 17.8631 9.18836C17.8634 9.18774 17.8636 9.1872 17.8638 9.18675C17.8639 9.18653 17.864 9.18627 17.864 9.18616C17.8641 9.18592 17.8642 9.1857 17.4 9ZM8.99998 10.9C7.95063 10.9 7.09998 10.0493 7.09998 9H6.09998C6.09998 10.6016 7.39835 11.9 8.99998 11.9V10.9ZM10.9 9C10.9 10.0493 10.0493 10.9 8.99998 10.9V11.9C10.6016 11.9 11.9 10.6016 11.9 9H10.9ZM8.99998 7.1C10.0493 7.1 10.9 7.95066 10.9 9H11.9C11.9 7.39837 10.6016 6.1 8.99998 6.1V7.1ZM8.99998 6.1C7.39835 6.1 6.09998 7.39837 6.09998 9H7.09998C7.09998 7.95066 7.95063 7.1 8.99998 7.1V6.1Z" fill="#252E4B"/>
</svg>
