<svg width="24" height="24" viewBox="0 0 24 24" fill="none" xmlns="http://www.w3.org/2000/svg">
<path d="M12 1L12.6508 0.240743C12.2763 -0.0802478 11.7237 -0.0802478 11.3492 0.240743L12 1ZM1 10.4286L0.349209 9.66932L0 9.96864V10.4286H1ZM8.85714 23V24C9.40943 24 9.85714 23.5523 9.85714 23H8.85714ZM15.1429 23H14.1429C14.1429 23.5523 14.5906 24 15.1429 24V23ZM23 10.4286H24V9.96864L23.6508 9.66932L23 10.4286ZM2.57143 24H8.85714V22H2.57143V24ZM23.6508 9.66932L12.6508 0.240743L11.3492 1.75926L22.3492 11.1878L23.6508 9.66932ZM11.3492 0.240743L0.349209 9.66932L1.65079 11.1878L12.6508 1.75926L11.3492 0.240743ZM9.85714 23V18.2857H7.85714V23H9.85714ZM14.1429 18.2857V23H16.1429V18.2857H14.1429ZM15.1429 24H21.4286V22H15.1429V24ZM24 21.4286V10.4286H22V21.4286H24ZM0 10.4286V21.4286H2V10.4286H0ZM12 16.1429C13.1835 16.1429 14.1429 17.1022 14.1429 18.2857H16.1429C16.1429 15.9977 14.288 14.1429 12 14.1429V16.1429ZM12 14.1429C9.71196 14.1429 7.85714 15.9977 7.85714 18.2857H9.85714C9.85714 17.1022 10.8165 16.1429 12 16.1429V14.1429ZM21.4286 24C22.8487 24 24 22.8487 24 21.4286H22C22 21.7442 21.7442 22 21.4286 22V24ZM2.57143 22C2.25584 22 2 21.7442 2 21.4286H0C0 22.8487 1.15127 24 2.57143 24V22Z" fill="#E5E5E5"/>
</svg>
