<svg width="18" height="10" viewBox="0 0 18 10" fill="none" xmlns="http://www.w3.org/2000/svg">
<path d="M8.70565 6.29568L9.18712 6.77715C9.58755 7.17758 10.2368 7.17758 10.6372 6.77715L16.542 0.872344C16.8757 0.538702 17.4166 0.538701 17.7502 0.872343V0.872343C18.0839 1.20599 18.0839 1.74693 17.7502 2.08057L11.2716 8.55918C10.5208 9.30999 9.30351 9.30999 8.5527 8.55918L5.07841 5.08489C4.74477 4.75125 4.74477 4.21031 5.07841 3.87667V3.87667C5.41205 3.54303 5.95299 3.54303 6.28664 3.87667L7.49828 5.08831L8.70565 6.29483V6.29568ZM9.3097 4.48157C8.97702 4.1489 8.977 3.60954 9.30964 3.27683L12.3363 0.249554C12.669 -0.0832013 13.2084 -0.0832286 13.5412 0.249493V0.249493C13.8738 0.582168 13.8739 1.12153 13.5412 1.45424L10.5146 4.48151C10.1819 4.81427 9.64242 4.8143 9.3097 4.48157V4.48157ZM5.68808 8.10759C6.02148 8.441 6.02148 8.98155 5.68808 9.31496V9.31496C5.35467 9.64837 4.81411 9.64837 4.48071 9.31496L0.250641 5.08489C-0.0830012 4.75125 -0.0830011 4.21031 0.250641 3.87667V3.87667C0.584283 3.54303 1.12522 3.54303 1.45887 3.87667L2.06212 4.47993L2.06127 4.48078L5.68808 8.10759Z" fill="#1BC8C8"/>
</svg>
