<svg width="20" height="20" viewBox="0 0 20 20" fill="none" xmlns="http://www.w3.org/2000/svg">
<path d="M15.0259 13.8473L18.595 17.4157L17.4159 18.5948L13.8475 15.0257C12.5198 16.09 10.8684 16.6689 9.16669 16.6665C5.02669 16.6665 1.66669 13.3065 1.66669 9.1665C1.66669 5.0265 5.02669 1.6665 9.16669 1.6665C13.3067 1.6665 16.6667 5.0265 16.6667 9.1665C16.6691 10.8682 16.0902 12.5196 15.0259 13.8473ZM13.3542 13.229C14.4118 12.1414 15.0024 10.6835 15 9.1665C15 5.94317 12.3892 3.33317 9.16669 3.33317C5.94335 3.33317 3.33335 5.94317 3.33335 9.1665C3.33335 12.389 5.94335 14.9998 9.16669 14.9998C10.6837 15.0022 12.1416 14.4116 13.2292 13.354L13.3542 13.229V13.229Z" fill="#5F6989" fill-opacity="0.69"/>
</svg>
