<svg width="172" height="146" viewBox="0 0 172 146" fill="none" xmlns="http://www.w3.org/2000/svg">
<rect x="26.0745" y="104.298" width="145.926" height="41.1702" rx="5" fill="white"/>
<rect opacity="0.8" x="37.5106" y="113.447" width="65.4149" height="6.42296" rx="1" fill="#DADAE4"/>
<rect opacity="0.5" x="37.5106" y="126.694" width="30.3373" height="6.42296" rx="1" fill="#DADAE4"/>
<g clip-path="url(#clip0_406_1340)">
<path d="M151.033 135.861C149.623 135.862 148.213 135.861 146.803 135.862C146.069 135.862 145.829 135.582 145.959 134.873C146.328 132.851 147.963 131.325 150.153 130.907C152.436 130.473 154.803 131.686 155.756 133.701C155.947 134.106 156.095 134.525 156.163 134.968C156.252 135.562 155.996 135.857 155.372 135.86C153.926 135.864 152.479 135.86 151.033 135.861Z" fill="#33348E"/>
<path d="M151.054 124.46C152.31 124.331 153.828 125.464 153.826 127.101C153.825 128.657 152.583 129.82 151.053 129.832C149.568 129.843 148.293 128.683 148.276 127.131C148.257 125.485 149.786 124.321 151.054 124.46Z" fill="#33348E"/>
<path d="M154.208 129.196C155.537 127.813 155.535 126.601 154.221 125.032C155.091 124.207 156.764 124.195 157.794 125.169C158.914 126.228 158.97 127.874 157.92 128.947C156.878 130.012 155.2 130.041 154.208 129.196Z" fill="#DADAE4"/>
<path d="M157.123 135.795C157.634 135.485 157.61 135.103 157.505 134.701C157.089 133.107 156.123 131.951 154.588 131.244C154.491 131.199 154.395 131.155 154.298 131.108C154.289 131.104 154.285 131.089 154.258 131.049C155.174 130.766 156.092 130.735 157.01 130.931C158.32 131.212 159.364 131.887 160.131 132.973C160.537 133.549 160.831 134.161 160.984 134.839C161.126 135.469 160.869 135.79 160.213 135.793C159.218 135.799 158.223 135.795 157.123 135.795Z" fill="#DADAE4"/>
</g>
<rect x="26.0745" width="145.926" height="41.1702" rx="5" fill="white"/>
<rect opacity="0.8" x="37.5106" y="9.14893" width="65.4149" height="6.42296" rx="1" fill="#DADAE4"/>
<rect opacity="0.5" x="37.5106" y="22.396" width="30.3373" height="6.42296" rx="1" fill="#DADAE4"/>
<g clip-path="url(#clip1_406_1340)">
<path d="M151.033 31.5631C149.623 31.5638 148.213 31.5631 146.803 31.5638C146.069 31.5638 145.829 31.2839 145.959 30.5755C146.328 28.5533 147.963 27.0269 150.153 26.6096C152.436 26.1747 154.803 27.3882 155.756 29.4034C155.947 29.8081 156.095 30.2276 156.163 30.6702C156.252 31.2643 155.996 31.5596 155.372 31.5617C153.926 31.5659 152.479 31.5624 151.033 31.5631Z" fill="#33348E"/>
<path d="M151.054 20.1621C152.31 20.033 153.828 21.1659 153.826 22.803C153.825 24.3595 152.583 25.5225 151.053 25.5344C149.568 25.5456 148.293 24.3854 148.276 22.8332C148.257 21.1869 149.786 20.0232 151.054 20.1621Z" fill="#33348E"/>
<path d="M154.208 24.8981C155.537 23.5156 155.535 22.3035 154.221 20.7337C155.091 19.9088 156.764 19.8976 157.794 20.8712C158.914 21.9304 158.97 23.5766 157.92 24.6491C156.878 25.7139 155.2 25.7434 154.208 24.8981Z" fill="#DADAE4"/>
<path d="M157.123 31.4974C157.634 31.1873 157.61 30.8051 157.505 30.4031C157.089 28.8095 156.123 27.6528 154.588 26.9465C154.491 26.9016 154.395 26.8567 154.298 26.8104C154.289 26.8062 154.285 26.7915 154.258 26.7515C155.174 26.4681 156.092 26.4372 157.01 26.6336C158.32 26.9142 159.364 27.589 160.131 28.6748C160.537 29.2507 160.831 29.863 160.984 30.5413C161.126 31.1712 160.869 31.4925 160.213 31.4953C159.218 31.5009 158.223 31.4974 157.123 31.4974Z" fill="#DADAE4"/>
</g>
<rect y="52.1489" width="145.926" height="41.1702" rx="5" fill="white"/>
<rect opacity="0.8" x="11.4363" y="61.2979" width="65.4149" height="6.42296" rx="1" fill="#DADAE4"/>
<rect opacity="0.5" x="11.4362" y="74.5449" width="30.3373" height="6.42296" rx="1" fill="#DADAE4"/>
<g clip-path="url(#clip2_406_1340)">
<path d="M124.958 83.712C123.548 83.7127 122.139 83.712 120.729 83.7127C119.994 83.7127 119.755 83.4329 119.884 82.7244C120.253 80.7022 121.889 79.1759 124.079 78.7585C126.361 78.3236 128.728 79.5371 129.682 81.5523C129.873 81.957 130.021 82.3765 130.088 82.8191C130.178 83.4132 129.922 83.7085 129.297 83.7106C127.851 83.7148 126.405 83.7113 124.958 83.712Z" fill="#33348E"/>
<path d="M124.979 72.311C126.236 72.182 127.753 73.3148 127.752 74.9519C127.751 76.5084 126.508 77.6714 124.979 77.6833C123.493 77.6945 122.218 76.5344 122.201 74.9821C122.182 73.3358 123.711 72.1722 124.979 72.311Z" fill="#33348E"/>
<path d="M128.134 77.0471C129.462 75.6645 129.461 74.4525 128.146 72.8826C129.017 72.0578 130.69 72.0465 131.719 73.0201C132.84 74.0793 132.896 75.7256 131.846 76.798C130.804 77.8628 129.126 77.8923 128.134 77.0471Z" fill="#DADAE4"/>
<path d="M131.048 83.6463C131.56 83.3363 131.535 82.954 131.43 82.5521C131.014 80.9584 130.049 79.8017 128.514 79.0954C128.417 79.0505 128.32 79.0056 128.224 78.9593C128.214 78.9551 128.21 78.9404 128.184 78.9004C129.099 78.617 130.017 78.5862 130.936 78.7826C132.246 79.0631 133.29 79.7379 134.056 80.8237C134.463 81.3996 134.757 82.012 134.909 82.6902C135.051 83.3201 134.795 83.6414 134.139 83.6442C133.144 83.6498 132.149 83.6463 131.048 83.6463Z" fill="#DADAE4"/>
</g>
<defs>
<clipPath id="clip0_406_1340">
<rect width="15.0957" height="11.4362" fill="white" transform="translate(145.926 124.426)"/>
</clipPath>
<clipPath id="clip1_406_1340">
<rect width="15.0957" height="11.4362" fill="white" transform="translate(145.926 20.1277)"/>
</clipPath>
<clipPath id="clip2_406_1340">
<rect width="15.0957" height="11.4362" fill="white" transform="translate(119.851 72.2766)"/>
</clipPath>
</defs>
</svg>
