<svg width="20" height="20" viewBox="0 0 20 20" fill="none" xmlns="http://www.w3.org/2000/svg">
<path d="M15.0258 13.8476L18.595 17.4159L17.4158 18.5951L13.8475 15.0259C12.5198 16.0903 10.8683 16.6692 9.16667 16.6667C5.02667 16.6667 1.66667 13.3067 1.66667 9.16675C1.66667 5.02675 5.02667 1.66675 9.16667 1.66675C13.3067 1.66675 16.6667 5.02675 16.6667 9.16675C16.6691 10.8684 16.0902 12.5199 15.0258 13.8476ZM13.3542 13.2292C14.4118 12.1417 15.0024 10.6838 15 9.16675C15 5.94341 12.3892 3.33341 9.16667 3.33341C5.94334 3.33341 3.33334 5.94341 3.33334 9.16675C3.33334 12.3892 5.94334 15.0001 9.16667 15.0001C10.6837 15.0025 12.1416 14.4118 13.2292 13.3542L13.3542 13.2292V13.2292Z" fill="#5F6989" fill-opacity="0.69"/>
</svg>
