<svg width="18" height="18" viewBox="0 0 18 18" fill="none" xmlns="http://www.w3.org/2000/svg">
<path d="M0.600098 9L0.135859 8.81431C0.0881773 8.93351 0.0881773 9.06649 0.135859 9.18569L0.600098 9ZM17.4001 9L17.8643 9.1857C17.912 9.06649 17.912 8.93351 17.8643 8.8143L17.4001 9ZM9.00008 14.5C6.18607 14.5 4.21121 13.0983 2.92174 11.6655C2.27665 10.9488 1.80946 10.2303 1.50386 9.691C1.35134 9.42184 1.23985 9.1987 1.1672 9.0446C1.1309 8.9676 1.10436 8.90796 1.08729 8.86858C1.07876 8.8489 1.07261 8.83429 1.06879 8.82512C1.06688 8.82053 1.06556 8.81731 1.06482 8.81549C1.06445 8.81458 1.06423 8.81403 1.06414 8.81383C1.0641 8.81373 1.0641 8.81372 1.06413 8.8138C1.06415 8.81384 1.0642 8.81396 1.06421 8.81398C1.06427 8.81413 1.06434 8.81431 0.600098 9C0.135859 9.18569 0.135946 9.18591 0.136043 9.18615C0.136088 9.18627 0.136194 9.18653 0.136283 9.18675C0.136462 9.1872 0.136678 9.18773 0.136931 9.18836C0.137437 9.18961 0.138093 9.19123 0.138899 9.19321C0.140511 9.19716 0.142722 9.20254 0.145538 9.20931C0.151171 9.22284 0.159224 9.24193 0.169737 9.26619C0.190759 9.3147 0.221637 9.38397 0.262677 9.47102C0.34472 9.64505 0.467604 9.89066 0.633833 10.184C0.965728 10.7697 1.47353 11.5512 2.17844 12.3345C3.58896 13.9017 5.81409 15.5 9.00008 15.5V14.5ZM0.600098 9C1.06434 9.18569 1.06427 9.18587 1.06421 9.18602C1.0642 9.18604 1.06415 9.18616 1.06413 9.1862C1.0641 9.18628 1.0641 9.18627 1.06414 9.18617C1.06423 9.18597 1.06445 9.18542 1.06482 9.18451C1.06556 9.18269 1.06688 9.17947 1.06879 9.17488C1.07261 9.16571 1.07876 9.1511 1.08729 9.13142C1.10436 9.09204 1.1309 9.0324 1.1672 8.9554C1.23985 8.8013 1.35134 8.57816 1.50386 8.30901C1.80946 7.76971 2.27665 7.05125 2.92174 6.33448C4.21121 4.90173 6.18607 3.5 9.00008 3.5V2.5C5.81409 2.5 3.58896 4.09827 2.17844 5.66552C1.47353 6.44875 0.965728 7.23029 0.633833 7.81599C0.467604 8.10934 0.34472 8.35495 0.262677 8.52898C0.221637 8.61603 0.190759 8.6853 0.169737 8.73381C0.159224 8.75808 0.151171 8.77716 0.145538 8.79069C0.142722 8.79746 0.140511 8.80284 0.138899 8.80679C0.138093 8.80877 0.137437 8.81039 0.136931 8.81164C0.136678 8.81227 0.136462 8.8128 0.136283 8.81325C0.136194 8.81347 0.136088 8.81374 0.136043 8.81385C0.135946 8.81409 0.135859 8.81431 0.600098 9ZM9.00008 3.5C11.8141 3.5 13.789 4.90173 15.0784 6.33448C15.7235 7.05125 16.1907 7.76971 16.4963 8.30901C16.6489 8.57816 16.7603 8.80131 16.833 8.9554C16.8693 9.03241 16.8958 9.09204 16.9129 9.13142C16.9214 9.15111 16.9276 9.16572 16.9314 9.17489C16.9333 9.17947 16.9346 9.18269 16.9354 9.18451C16.9357 9.18542 16.936 9.18598 16.9361 9.18618C16.9361 9.18628 16.9361 9.18629 16.9361 9.18621C16.936 9.18617 16.936 9.18604 16.936 9.18602C16.9359 9.18587 16.9359 9.1857 17.4001 9C17.8643 8.8143 17.8642 8.81409 17.8642 8.81384C17.8641 8.81373 17.864 8.81347 17.8639 8.81325C17.8637 8.8128 17.8635 8.81227 17.8633 8.81164C17.8628 8.81038 17.8621 8.80877 17.8613 8.80679C17.8597 8.80284 17.8575 8.79746 17.8547 8.79069C17.849 8.77716 17.841 8.75807 17.8305 8.73381C17.8094 8.6853 17.7786 8.61603 17.7375 8.52898C17.6555 8.35494 17.5326 8.10934 17.3664 7.81599C17.0345 7.23029 16.5266 6.44875 15.8217 5.66552C14.4112 4.09827 12.1861 2.5 9.00008 2.5V3.5ZM17.4001 9C16.9359 8.8143 16.9359 8.81413 16.936 8.81398C16.936 8.81396 16.936 8.81383 16.9361 8.81379C16.9361 8.81371 16.9361 8.81372 16.9361 8.81382C16.936 8.81402 16.9357 8.81458 16.9354 8.81549C16.9346 8.81731 16.9333 8.82053 16.9314 8.82511C16.9276 8.83428 16.9214 8.84889 16.9129 8.86858C16.8958 8.90796 16.8693 8.9676 16.833 9.0446C16.7603 9.1987 16.6489 9.42184 16.4963 9.69099C16.1907 10.2303 15.7235 10.9488 15.0784 11.6655C13.789 13.0983 11.8141 14.5 9.00008 14.5V15.5C12.1861 15.5 14.4112 13.9017 15.8217 12.3345C16.5266 11.5512 17.0345 10.7697 17.3664 10.184C17.5326 9.89066 17.6555 9.64506 17.7375 9.47102C17.7786 9.38397 17.8094 9.3147 17.8305 9.26619C17.841 9.24193 17.849 9.22284 17.8547 9.20931C17.8575 9.20254 17.8597 9.19716 17.8613 9.19321C17.8621 9.19123 17.8628 9.18962 17.8633 9.18836C17.8635 9.18774 17.8637 9.1872 17.8639 9.18675C17.864 9.18653 17.8641 9.18627 17.8642 9.18616C17.8642 9.18592 17.8643 9.1857 17.4001 9ZM9.0001 10.9C7.95076 10.9 7.1001 10.0493 7.1001 9H6.1001C6.1001 10.6016 7.39847 11.9 9.0001 11.9V10.9ZM10.9001 9C10.9001 10.0493 10.0494 10.9 9.0001 10.9V11.9C10.6017 11.9 11.9001 10.6016 11.9001 9H10.9001ZM9.0001 7.1C10.0494 7.1 10.9001 7.95066 10.9001 9H11.9001C11.9001 7.39837 10.6017 6.1 9.0001 6.1V7.1ZM9.0001 6.1C7.39847 6.1 6.1001 7.39837 6.1001 9H7.1001C7.1001 7.95066 7.95076 7.1 9.0001 7.1V6.1Z" fill="#252E4B"/>
</svg>
