<svg width="36" height="36" viewBox="0 0 36 36" fill="none" xmlns="http://www.w3.org/2000/svg">
<circle cx="18" cy="18" r="18" fill="#14AFAF"/>
<path d="M25.5 21.6833V24.63C25.5001 24.841 25.4202 25.0441 25.2763 25.1985C25.1325 25.3528 24.9355 25.4469 24.725 25.4617C24.3608 25.4867 24.0633 25.5 23.8333 25.5C16.4692 25.5 10.5 19.5308 10.5 12.1667C10.5 11.9367 10.5125 11.6392 10.5383 11.275C10.5531 11.0645 10.6472 10.8675 10.8015 10.7237C10.9559 10.5798 11.159 10.4999 11.37 10.5H14.3167C14.42 10.4999 14.5197 10.5382 14.5964 10.6075C14.6731 10.6768 14.7213 10.7722 14.7317 10.875C14.7508 11.0667 14.7683 11.2192 14.785 11.335C14.9506 12.4908 15.29 13.6149 15.7917 14.6692C15.8708 14.8358 15.8192 15.035 15.6692 15.1417L13.8708 16.4267C14.9704 18.9887 17.0121 21.0305 19.5742 22.13L20.8575 20.335C20.91 20.2617 20.9865 20.2091 21.0737 20.1864C21.161 20.1637 21.2535 20.1723 21.335 20.2108C22.3892 20.7116 23.513 21.0501 24.6683 21.215C24.7842 21.2317 24.9367 21.25 25.1267 21.2683C25.2294 21.2789 25.3245 21.3271 25.3936 21.4038C25.4628 21.4805 25.501 21.5801 25.5008 21.6833H25.5Z" fill="white"/>
</svg>
