<svg
    xmlns="http://www.w3.org/2000/svg"
    viewBox="0 0 55 55"
    id="vector">
    <path
        id="path"
        d="M 23.358 3.041 C 25.823 1.231 29.177 1.231 31.642 3.041 L 34.85 5.396 C 35.76 6.064 36.817 6.502 37.932 6.673 L 41.866 7.276 C 44.889 7.739 47.261 10.111 47.724 13.134 L 48.327 17.068 C 48.498 18.183 48.936 19.24 49.604 20.149 L 51.959 23.358 C 53.769 25.823 53.769 29.177 51.959 31.642 L 49.604 34.85 C 48.936 35.76 48.498 36.817 48.327 37.932 L 47.724 41.866 C 47.261 44.889 44.889 47.261 41.866 47.724 L 37.932 48.327 C 36.817 48.498 35.76 48.936 34.85 49.604 L 31.642 51.959 C 29.177 53.769 25.823 53.769 23.358 51.959 L 20.149 49.604 C 19.24 48.936 18.183 48.498 17.068 48.327 L 13.134 47.724 C 10.111 47.261 7.739 44.889 7.276 41.866 L 6.673 37.932 C 6.502 36.817 6.064 35.76 5.396 34.85 L 3.041 31.642 C 1.231 29.177 1.231 25.823 3.041 23.358 L 5.396 20.149 C 6.064 19.24 6.502 18.183 6.673 17.068 L 7.276 13.134 C 7.739 10.111 10.111 7.739 13.134 7.276 L 17.068 6.673 C 18.183 6.502 19.24 6.064 20.149 5.396 L 23.358 3.041 Z"
        fill="#00b998"/>
    <path
        id="path_1"
        d="M 27.143 29.311 L 27.831 29.991 C 28.259 30.414 28.948 30.414 29.376 29.991 L 36.638 22.811 C 37.038 22.415 37.683 22.415 38.084 22.811 C 38.491 23.214 38.491 23.871 38.084 24.274 L 29.794 32.47 C 29.134 33.122 28.073 33.122 27.413 32.47 L 22.76 27.87 C 22.353 27.467 22.353 26.81 22.76 26.407 C 23.161 26.011 23.806 26.011 24.206 26.407 L 25.681 27.866 L 27.143 29.309 L 27.143 29.311 Z M 27.883 27.147 C 27.477 26.746 27.477 26.09 27.882 25.689 L 31.546 22.066 C 31.946 21.671 32.589 21.671 32.988 22.066 C 33.394 22.467 33.394 23.123 32.988 23.524 L 29.325 27.147 C 28.925 27.542 28.282 27.543 27.883 27.147 Z M 23.482 31.471 C 23.889 31.873 23.889 32.53 23.482 32.933 C 23.081 33.328 22.437 33.328 22.037 32.933 L 16.916 27.87 C 16.509 27.467 16.509 26.81 16.916 26.407 C 17.317 26.011 17.961 26.011 18.362 26.407 L 19.101 27.137 L 19.099 27.138 L 23.482 31.471 Z"
        fill="#ffffff"/>
</svg>
