<svg width="19" height="19" viewBox="0 0 19 19" fill="none" xmlns="http://www.w3.org/2000/svg">
<path fill-rule="evenodd" clip-rule="evenodd" d="M9.27378 1.37025C10.0515 0.592544 11.1063 0.155638 12.2061 0.155638C14.4964 0.155638 16.353 2.01229 16.353 4.30258C16.353 5.40241 15.9161 6.4572 15.1384 7.2349L7.96525 14.4081C7.51798 14.8553 6.91136 15.1066 6.27884 15.1066C4.96167 15.1066 3.89389 14.0388 3.89389 12.7217C3.89389 12.0891 4.14516 11.4825 4.59243 11.0353L11.5518 4.07584L12.4328 4.95684L5.47342 11.9163C5.25981 12.1299 5.1398 12.4196 5.1398 12.7217C5.1398 13.3507 5.64977 13.8607 6.27884 13.8607C6.58093 13.8607 6.87064 13.7407 7.08425 13.5271L14.2574 6.35391C14.8015 5.80986 15.1071 5.07197 15.1071 4.30258C15.1071 2.70039 13.8083 1.40155 12.2061 1.40155C11.4367 1.40155 10.6988 1.70719 10.1548 2.25124L2.76782 9.63819C1.89334 10.5127 1.40206 11.6987 1.40206 12.9354C1.40206 15.5107 3.48976 17.5984 6.06507 17.5984C7.30178 17.5984 8.48783 17.1072 9.36232 16.2327L16.5355 9.0595L17.4165 9.9405L10.2433 17.1137C9.13517 18.2218 7.63222 18.8444 6.06507 18.8444C2.80166 18.8444 0.156145 16.1988 0.156145 12.9354C0.156145 11.3683 0.778691 9.86533 1.88683 8.75719L9.27378 1.37025Z" fill="#5F6989" stroke="#5F6989" stroke-width="0.3"/>
</svg>
