<svg
    xmlns="http://www.w3.org/2000/svg"
    viewBox="0 0 141 125"
    id="vector">
    <path
        id="path"
        d="M 46.557 8.534 C 45.292 5.836 43.244 3.582 40.679 2.065 C 38.115 0.548 35.152 -0.161 32.179 0.03 C 29.206 0.221 26.358 1.303 24.009 3.135 C 21.66 4.968 19.916 7.466 19.007 10.303 C 16.923 10.405 14.958 11.312 13.529 12.833 C 12.1 14.353 11.316 16.371 11.343 18.457 C 11.343 18.877 55.293 18.746 55.293 18.457 C 55.318 11.7 52.998 8.472 47.654 8.472 C 47.286 8.472 46.919 8.492 46.554 8.533 Z"
        fill="#e0e5f9"/>
    <path
        id="path_1"
        d="M 80.119 12.957 C 81.946 9.061 84.905 5.804 88.609 3.613 C 92.313 1.422 96.593 0.398 100.887 0.674 C 105.182 0.949 109.295 2.513 112.688 5.16 C 116.081 7.806 118.6 11.415 119.913 15.513 C 122.923 15.66 125.762 16.971 127.826 19.167 C 129.89 21.363 131.022 24.277 130.983 27.291 C 130.977 27.899 67.501 27.708 67.501 27.291 C 67.464 17.531 70.815 12.868 78.534 12.868 C 79.064 12.868 79.593 12.897 80.119 12.957 Z"
        fill="#e0e5f9"/>
    <path
        id="path_2"
        d="M 5.009 95.8 C 4.848 95.8 4.689 95.769 4.541 95.707 C 4.392 95.646 4.257 95.556 4.144 95.442 L 3.116 94.414 L 2.088 95.442 C 1.857 95.661 1.549 95.782 1.23 95.778 C 0.911 95.774 0.607 95.645 0.381 95.42 C 0.156 95.194 0.027 94.89 0.023 94.571 C 0.019 94.252 0.14 93.944 0.359 93.713 L 1.387 92.685 L 0.359 91.657 C 0.14 91.426 0.019 91.118 0.023 90.799 C 0.027 90.48 0.156 90.176 0.381 89.95 C 0.607 89.725 0.911 89.596 1.23 89.592 C 1.549 89.588 1.857 89.709 2.088 89.928 L 3.116 90.956 L 4.144 89.928 C 4.375 89.709 4.683 89.588 5.002 89.592 C 5.321 89.596 5.625 89.725 5.851 89.95 C 6.076 90.176 6.205 90.48 6.209 90.799 C 6.213 91.118 6.092 91.426 5.873 91.657 L 4.845 92.685 L 5.873 93.713 C 6.102 93.942 6.231 94.254 6.23 94.578 C 6.23 94.902 6.101 95.213 5.872 95.442 C 5.643 95.671 5.332 95.8 5.008 95.8 Z M 139.809 69.452 C 139.648 69.452 139.489 69.421 139.341 69.359 C 139.192 69.298 139.057 69.208 138.944 69.094 L 137.915 68.066 L 136.887 69.094 C 136.656 69.313 136.348 69.434 136.029 69.43 C 135.71 69.426 135.406 69.297 135.18 69.072 C 134.955 68.846 134.826 68.542 134.822 68.223 C 134.818 67.904 134.939 67.596 135.158 67.365 L 136.186 66.336 L 135.158 65.308 C 134.939 65.077 134.818 64.769 134.822 64.45 C 134.826 64.131 134.955 63.827 135.18 63.601 C 135.406 63.376 135.71 63.247 136.029 63.243 C 136.348 63.239 136.656 63.36 136.887 63.579 L 137.915 64.607 L 138.944 63.579 C 139.175 63.36 139.483 63.239 139.802 63.243 C 140.121 63.247 140.425 63.376 140.651 63.601 C 140.876 63.827 141.005 64.131 141.009 64.45 C 141.013 64.769 140.892 65.077 140.673 65.308 L 139.645 66.336 L 140.673 67.365 C 140.902 67.594 141.03 67.905 141.03 68.229 C 141.03 68.553 140.902 68.864 140.673 69.093 C 140.444 69.322 140.133 69.452 139.809 69.452 Z M 17.241 30.585 C 17.08 30.585 16.921 30.554 16.773 30.492 C 16.624 30.431 16.489 30.341 16.376 30.227 L 15.348 29.199 L 14.32 30.227 C 14.089 30.446 13.781 30.567 13.462 30.563 C 13.143 30.559 12.839 30.43 12.613 30.205 C 12.388 29.979 12.259 29.675 12.255 29.356 C 12.251 29.037 12.372 28.729 12.591 28.498 L 13.619 27.47 L 12.591 26.442 C 12.372 26.211 12.251 25.903 12.255 25.584 C 12.259 25.265 12.388 24.961 12.613 24.735 C 12.839 24.51 13.143 24.381 13.462 24.377 C 13.781 24.373 14.089 24.494 14.32 24.713 L 15.348 25.741 L 16.376 24.713 C 16.607 24.494 16.915 24.373 17.234 24.377 C 17.553 24.381 17.857 24.51 18.083 24.735 C 18.308 24.961 18.437 25.265 18.441 25.584 C 18.445 25.903 18.324 26.211 18.105 26.442 L 17.077 27.47 L 18.105 28.498 C 18.334 28.727 18.463 29.039 18.462 29.363 C 18.462 29.687 18.333 29.998 18.104 30.227 C 17.875 30.456 17.564 30.585 17.24 30.585 Z"
        fill="#c7ceff"/>
    <path
        id="path_3"
        d="M 71.574 114.697 C 98.569 114.697 120.485 117.072 120.485 119.997 C 120.485 122.922 98.569 125.297 71.574 125.297 C 44.579 125.297 22.663 122.922 22.663 119.997 C 22.663 117.072 44.579 114.697 71.574 114.697 Z"
        fill="#c7ceff"/>
    <path
        id="path_4"
        d="M 72.146 69.099 C 72.237 68.463 72.487 67.86 72.873 67.346 C 73.258 66.832 73.768 66.424 74.353 66.159 C 80.503 63.007 92.723 56.713 96.465 49.789 C 102.588 38.46 99.885 27.636 97.897 22.471 L 97.128 20.471 C 96.856 20.112 96.505 19.822 96.102 19.622 C 95.699 19.422 95.255 19.319 94.805 19.32 L 46.225 19.32 C 45.775 19.319 45.331 19.422 44.928 19.622 C 44.525 19.821 44.174 20.112 43.902 20.47 L 43.132 22.47 C 41.145 27.634 38.442 38.459 44.564 49.788 C 48.306 56.711 60.525 63.005 66.676 66.158 C 67.313 66.343 67.873 66.729 68.271 67.259 C 68.669 67.789 68.885 68.435 68.885 69.098 C 68.885 69.761 68.669 70.407 68.271 70.937 C 67.873 71.467 67.313 71.853 66.676 72.038 C 60.526 75.19 48.306 81.484 44.564 88.407 C 38.441 99.736 41.144 110.562 43.132 115.725 L 43.902 117.725 C 44.174 118.083 44.525 118.373 44.928 118.573 C 45.331 118.772 45.775 118.875 46.225 118.874 L 94.805 118.874 C 95.255 118.875 95.698 118.772 96.101 118.572 C 96.505 118.373 96.856 118.083 97.128 117.725 L 97.897 115.725 C 99.884 110.562 102.587 99.736 96.465 88.407 C 92.723 81.485 80.503 75.19 74.353 72.038 C 73.768 71.773 73.259 71.365 72.873 70.851 C 72.487 70.338 72.237 69.735 72.146 69.099 Z"
        fill="#ffffff"/>
    <path
        id="path_5"
        d="M 97.842 102.53 C 96.096 100.999 87.403 99.73 85.009 97.637 C 82.615 95.544 74.286 88.025 70.53 88.025 C 67.3 88.025 62.913 96.708 58.851 98.559 C 55.08 100.276 45.713 102.976 43.532 106.434 C 43.903 108.558 44.479 110.642 45.252 112.655 L 45.923 114.398 C 46.167 114.579 46.459 114.683 46.762 114.698 L 94.298 114.698 C 94.601 114.683 94.893 114.579 95.137 114.398 L 95.808 112.655 C 97.048 109.433 97.774 106.036 97.958 102.588 C 97.885 102.55 97.842 102.529 97.842 102.529 Z"
        fill="#c7ceff"/>
    <path
        id="path_6"
        d="M 85.82 45.822 C 80.296 45.822 73.906 51.09 70.529 51.09 C 67.408 51.09 58.742 47.407 55.168 46.325 C 52.087 45.536 48.854 45.555 45.782 46.38 C 46.024 46.901 46.282 47.423 46.566 47.947 C 50.01 54.32 61.832 60.379 67.514 63.291 C 67.303 64.041 67.379 64.843 67.728 65.54 C 68.076 66.237 68.673 66.779 69.399 67.06 C 70.126 67.341 70.932 67.341 71.659 67.06 C 72.385 66.779 72.982 66.237 73.33 65.54 C 73.679 64.843 73.755 64.041 73.544 63.291 C 79.226 60.38 91.044 54.32 94.492 47.947 Q 94.759 47.453 95.002 46.959 C 91.999 46.208 88.915 45.827 85.819 45.822 Z"
        fill="#c7ceff"/>
    <path
        id="path_7"
        d="M 99.292 111.211 C 98.927 112.744 98.461 114.251 97.897 115.723 L 97.127 117.723 C 96.855 118.081 96.504 118.37 96.101 118.57 C 95.698 118.769 95.254 118.872 94.805 118.871 L 46.222 118.871 C 45.773 118.872 45.329 118.769 44.926 118.569 C 44.524 118.37 44.172 118.081 43.9 117.723 L 43.131 115.723 C 42.565 114.252 42.097 112.744 41.731 111.211 Z"
        fill="#3053d8"/>
    <path
        id="path_8"
        d="M 41.735 26.984 L 99.292 26.984 C 98.927 25.451 98.461 23.943 97.897 22.471 L 97.127 20.471 C 96.855 20.113 96.504 19.823 96.101 19.624 C 95.698 19.424 95.254 19.321 94.805 19.322 L 46.222 19.322 C 45.773 19.321 45.329 19.425 44.926 19.624 C 44.523 19.823 44.172 20.113 43.9 20.471 L 43.131 22.471 C 42.565 23.943 42.098 25.45 41.731 26.984 Z"
        fill="#3053d8"/>
    <path
        id="path_9"
        d="M 94.804 120.098 L 46.224 120.098 C 45.56 120.099 44.905 119.939 44.316 119.633 C 43.727 119.326 43.221 118.881 42.841 118.336 C 42.809 118.281 42.782 118.223 42.759 118.164 L 41.99 116.164 C 39.843 110.588 37.183 99.491 43.49 87.826 C 47.434 80.526 60.054 74.059 66.12 70.95 C 66.549 70.866 66.936 70.636 67.214 70.298 C 67.491 69.961 67.643 69.537 67.643 69.1 C 67.643 68.663 67.491 68.239 67.214 67.902 C 66.936 67.564 66.549 67.334 66.12 67.25 C 60.055 64.141 47.434 57.673 43.489 50.374 C 43.365 50.147 43.317 49.886 43.351 49.629 C 43.384 49.373 43.499 49.133 43.677 48.946 C 43.855 48.759 44.089 48.632 44.343 48.586 C 44.598 48.539 44.861 48.575 45.094 48.687 C 45.327 48.8 45.519 48.983 45.641 49.211 C 49.225 55.843 61.389 62.078 67.235 65.074 C 68.008 65.438 68.677 65.992 69.179 66.684 C 69.681 67.376 70 68.184 70.106 69.032 C 70.109 69.079 70.109 69.126 70.106 69.173 C 70 70.021 69.681 70.829 69.179 71.52 C 68.677 72.212 68.008 72.766 67.235 73.13 C 61.389 76.13 49.224 82.362 45.641 88.992 C 43.515 93.013 42.291 97.449 42.054 101.991 C 41.818 106.533 42.576 111.073 44.274 115.292 L 44.995 117.168 C 45.333 117.473 45.77 117.648 46.225 117.659 L 94.805 117.659 C 95.261 117.648 95.698 117.473 96.036 117.168 L 96.756 115.292 C 98.455 111.073 99.212 106.533 98.976 101.991 C 98.74 97.449 97.516 93.013 95.39 88.992 C 94.353 87.215 93.03 85.621 91.475 84.274 C 91.279 84.101 91.144 83.871 91.088 83.615 C 91.033 83.36 91.061 83.094 91.168 82.856 C 91.275 82.617 91.455 82.42 91.682 82.291 C 91.91 82.163 92.172 82.111 92.432 82.142 C 92.691 82.174 92.933 82.288 93.123 82.467 C 94.883 83.996 96.377 85.806 97.545 87.824 C 103.845 99.49 101.189 110.586 99.045 116.162 L 98.277 118.162 C 98.254 118.221 98.227 118.279 98.195 118.334 C 97.815 118.88 97.307 119.326 96.717 119.633 C 96.126 119.941 95.47 120.1 94.804 120.098 Z M 74.352 73.261 C 74.159 73.261 73.968 73.215 73.796 73.126 C 73.023 72.762 72.354 72.208 71.852 71.516 C 71.35 70.825 71.031 70.017 70.925 69.169 C 70.922 69.122 70.922 69.075 70.925 69.028 C 71.031 68.18 71.35 67.372 71.852 66.68 C 72.354 65.988 73.023 65.434 73.796 65.07 C 79.642 62.07 91.806 55.837 95.39 49.207 C 101.228 38.407 98.752 28.094 96.757 22.907 L 96.036 21.031 C 95.698 20.725 95.261 20.55 94.805 20.539 L 46.225 20.539 C 45.769 20.55 45.333 20.724 44.995 21.03 L 44.273 22.906 C 44.151 23.2 43.918 23.435 43.625 23.56 C 43.332 23.685 43.002 23.691 42.705 23.577 C 42.408 23.463 42.167 23.237 42.033 22.948 C 41.9 22.658 41.885 22.328 41.991 22.028 L 42.76 20.028 C 42.783 19.969 42.81 19.912 42.841 19.857 C 43.221 19.312 43.727 18.867 44.316 18.56 C 44.905 18.253 45.56 18.093 46.224 18.094 L 94.804 18.094 C 95.468 18.093 96.123 18.253 96.712 18.56 C 97.301 18.867 97.807 19.313 98.187 19.858 C 98.219 19.913 98.246 19.97 98.269 20.029 L 99.038 22.029 C 101.184 27.606 103.844 38.702 97.538 50.367 C 93.594 57.667 80.974 64.134 74.909 67.243 C 74.48 67.327 74.093 67.557 73.815 67.895 C 73.538 68.232 73.386 68.656 73.386 69.093 C 73.386 69.53 73.538 69.954 73.815 70.291 C 74.093 70.629 74.48 70.859 74.909 70.943 C 75.153 71.068 75.348 71.272 75.462 71.521 C 75.577 71.771 75.604 72.051 75.539 72.318 C 75.475 72.585 75.323 72.822 75.107 72.992 C 74.892 73.161 74.625 73.254 74.351 73.254 Z"
        fill="#49508f"/>
</svg>
