<svg width="205" height="133" viewBox="0 0 205 133" fill="none" xmlns="http://www.w3.org/2000/svg">
<path d="M87.1191 83.2263H8.02141C3.58345 83.2263 0 79.6209 0 75.1867V44.6584C0 40.2104 3.59723 36.6188 8.02141 36.6188H87.1191C91.5571 36.6188 95.1406 40.2242 95.1406 44.6584V75.1867C95.1406 76.0154 95.1758 85.6024 95.1617 91.7535C95.1594 92.7827 93.7938 93.1332 93.2804 92.2412C91.1445 88.5297 87.9491 83.2263 87.1191 83.2263Z" fill="white"/>
<path opacity="0.8" d="M80.323 49.4354H12.8577V54.2913H80.323V49.4354Z" fill="#DADAE4"/>
<path d="M54.8254 64.1474H12.8577V69.0033H54.8254V64.1474Z" fill="#EDEDF2"/>
<path d="M117.881 42.4634H196.979C201.417 42.4634 205 38.858 205 34.4238V8.03959C205 3.59157 201.403 0 196.979 0H117.881C113.443 0 109.859 3.60538 109.859 8.03959V34.4238C109.859 35.2513 109.824 44.8129 109.838 50.9649C109.841 51.9959 111.215 52.3481 111.73 51.4546C113.866 47.743 117.052 42.4634 117.881 42.4634Z" fill="white"/>
<path opacity="0.8" d="M124.678 16.7588L192.143 16.7588L192.143 11.9028L124.678 11.9028L124.678 16.7588Z" fill="#DADAE4"/>
<path d="M124.682 28.7025L166.649 28.7025L166.649 23.8465L124.682 23.8465L124.682 28.7025Z" fill="#EDEDF2"/>
<path d="M126.78 88.5077C117.618 88.5077 110.189 80.897 110.189 71.5118C110.189 62.1265 117.618 54.5158 126.78 54.5158C135.942 54.5158 143.371 62.1265 143.371 71.5118C143.371 80.897 135.951 88.5077 126.78 88.5077Z" fill="white"/>
<path d="M126.816 79.2562C124.926 79.2571 123.037 79.2562 121.147 79.2571C120.163 79.2571 119.842 78.8909 120.015 77.964C120.51 75.3181 122.701 73.3211 125.637 72.775C128.696 72.206 131.868 73.7937 133.147 76.4304C133.403 76.9599 133.601 77.5088 133.692 78.0879C133.812 78.8652 133.469 79.2516 132.632 79.2543C130.693 79.2598 128.755 79.2552 126.816 79.2562Z" fill="#8D98B1"/>
<path d="M126.845 63.8777C128.462 63.7064 130.417 65.2103 130.415 67.3837C130.413 69.4501 128.813 70.994 126.844 71.0098C124.932 71.0247 123.29 69.4845 123.268 67.4237C123.244 65.2382 125.212 63.6933 126.845 63.8777Z" fill="#8D98B1"/>
<path d="M76.6016 132.73C66.0991 132.73 57.5824 124.213 57.5824 113.711C57.5824 103.208 66.0991 94.6915 76.6016 94.6915C87.1041 94.6915 95.6209 103.208 95.6209 113.711C95.6209 124.213 87.1041 132.73 76.6016 132.73Z" fill="white"/>
<path d="M76.616 122.69C74.477 122.691 72.3392 122.69 70.2003 122.691C69.0864 122.691 68.7231 122.277 68.9195 121.228C69.4792 118.233 71.9595 115.973 75.2815 115.355C78.7439 114.711 82.3337 116.508 83.7801 119.492C84.0698 120.091 84.2948 120.713 84.3969 121.368C84.5329 122.248 84.1444 122.685 83.1973 122.688C81.0035 122.694 78.8098 122.689 76.616 122.69Z" fill="#33348E"/>
<path d="M76.6514 105.287C78.4815 105.093 80.6933 106.795 80.6912 109.254C80.6891 111.593 78.879 113.34 76.6503 113.358C74.486 113.375 72.6285 111.632 72.6032 109.3C72.5757 106.826 74.8033 105.078 76.6514 105.287Z" fill="#33348E"/>
</svg>
