<svg width="28" height="26" viewBox="0 0 28 26" fill="none" xmlns="http://www.w3.org/2000/svg">
<path d="M22.3571 25H27V22.2143C27 19.6501 24.9213 17.5714 22.3571 17.5714M15.8571 6.5678C15.8571 9.64308 13.363 12.1356 10.2857 12.1356C7.20843 12.1356 4.71429 9.64308 4.71429 6.5678C4.71429 3.49252 7.20843 1 10.2857 1C13.363 1 15.8571 3.49252 15.8571 6.5678ZM19.5714 24.9831H1C1 23.6644 1 22.4099 1 21.2739C1 18.1969 3.49441 15.7034 6.57143 15.7034H14C17.077 15.7034 19.5714 18.1969 19.5714 21.2739C19.5714 22.4099 19.5714 23.6644 19.5714 24.9831ZM21.4286 14.8571C19.3772 14.8571 17.7143 13.1942 17.7143 11.1429C17.7143 9.09151 19.3772 7.42857 21.4286 7.42857C23.4799 7.42857 25.1429 9.09151 25.1429 11.1429C25.1429 13.1942 23.4799 14.8571 21.4286 14.8571Z" stroke="#E5E5E5" stroke-width="2" stroke-linecap="square"/>
</svg>
