<svg
    xmlns="http://www.w3.org/2000/svg"
    viewBox="0 0 16 15"
    id="vector">
    <path
        id="path"
        d="M 8.795 4.583 L 9.856 5.644 C 10.344 6.131 10.73 6.71 10.994 7.347 C 11.258 7.984 11.394 8.667 11.394 9.356 C 11.394 10.046 11.258 10.729 10.994 11.366 C 10.73 12.003 10.344 12.581 9.856 13.069 L 9.591 13.334 C 8.606 14.318 7.271 14.871 5.878 14.871 C 4.486 14.871 3.15 14.318 2.166 13.334 C 1.181 12.349 0.628 11.014 0.628 9.621 C 0.628 8.229 1.181 6.893 2.166 5.909 L 3.227 6.97 C 2.876 7.318 2.598 7.731 2.407 8.187 C 2.217 8.642 2.118 9.131 2.117 9.625 C 2.116 10.119 2.212 10.608 2.401 11.064 C 2.589 11.521 2.866 11.936 3.215 12.285 C 3.564 12.634 3.979 12.911 4.436 13.099 C 4.892 13.288 5.381 13.384 5.875 13.383 C 6.369 13.382 6.858 13.284 7.313 13.093 C 7.769 12.902 8.182 12.624 8.53 12.273 L 8.796 12.008 C 9.499 11.304 9.894 10.351 9.894 9.356 C 9.894 8.362 9.499 7.408 8.796 6.705 L 7.734 5.644 L 8.796 4.583 L 8.795 4.583 Z M 13.833 9.091 L 12.773 8.03 C 13.124 7.683 13.402 7.269 13.593 6.814 C 13.783 6.358 13.882 5.869 13.883 5.375 C 13.884 4.882 13.787 4.392 13.599 3.936 C 13.411 3.479 13.134 3.065 12.785 2.716 C 12.435 2.366 12.021 2.09 11.564 1.901 C 11.108 1.713 10.619 1.616 10.125 1.617 C 9.631 1.618 9.142 1.717 8.687 1.907 C 8.231 2.098 7.817 2.377 7.47 2.727 L 7.204 2.993 C 6.501 3.696 6.106 4.65 6.106 5.644 C 6.106 6.638 6.501 7.592 7.204 8.295 L 8.265 9.356 L 7.204 10.417 L 6.144 9.356 C 5.656 8.869 5.269 8.29 5.005 7.653 C 4.742 7.016 4.606 6.333 4.606 5.644 C 4.606 4.954 4.742 4.272 5.005 3.635 C 5.269 2.998 5.656 2.419 6.144 1.931 L 6.409 1.667 C 7.394 0.682 8.729 0.129 10.122 0.129 C 11.514 0.129 12.85 0.682 13.834 1.667 C 14.819 2.651 15.372 3.987 15.372 5.379 C 15.372 6.772 14.819 8.107 13.834 9.092 L 13.833 9.091 Z"
        fill="#252e4b"/>
</svg>
