<svg
    xmlns="http://www.w3.org/2000/svg"
    viewBox="0 0 57 7"
    id="vector">
    <path
        id="path"
        d="M 4.458 1.155 L 6.855 1.155 L 6.855 0 L 0.75 0 L 0.75 1.155 L 3.136 1.155 L 3.136 6.849 L 4.458 6.849 L 4.458 1.155 Z"
        fill="#33348e"/>
    <path
        id="path_1"
        d="M 12.029 4.736 L 12.029 4.227 C 12.029 2.612 11.102 1.761 9.632 1.761 C 7.917 1.761 6.883 2.926 6.883 4.393 C 6.883 5.88 7.949 6.908 9.611 6.908 C 10.57 6.908 11.305 6.565 11.88 5.949 L 11.198 5.235 C 10.868 5.616 10.389 5.88 9.717 5.88 C 8.876 5.88 8.332 5.499 8.183 4.736 L 12.029 4.736 Z M 8.172 3.865 C 8.3 3.16 8.78 2.749 9.568 2.749 C 10.367 2.749 10.74 3.17 10.751 3.865 L 8.172 3.865 Z"
        fill="#33348e"/>
    <path
        id="path_2"
        d="M 16.02 6.605 L 15.701 5.704 C 15.509 5.802 15.317 5.841 15.136 5.841 C 14.742 5.841 14.443 5.597 14.443 5.137 L 14.443 0 L 13.154 0 L 13.154 5.264 C 13.154 6.331 13.9 6.908 14.827 6.908 C 15.21 6.908 15.615 6.81 16.02 6.605 Z"
        fill="#33348e"/>
    <path
        id="path_3"
        d="M 21.601 4.736 L 21.601 4.227 C 21.601 2.612 20.674 1.761 19.204 1.761 C 17.489 1.761 16.455 2.926 16.455 4.393 C 16.455 5.88 17.521 6.908 19.183 6.908 C 20.142 6.908 20.877 6.565 21.452 5.949 L 20.77 5.235 C 20.44 5.616 19.961 5.88 19.289 5.88 C 18.448 5.88 17.904 5.499 17.755 4.736 L 21.601 4.736 Z M 17.745 3.865 C 17.872 3.16 18.352 2.749 19.14 2.749 C 19.939 2.749 20.312 3.17 20.323 3.865 L 17.745 3.865 Z"
        fill="#33348e"/>
    <path
        id="path_4"
        d="M 22.833 6.849 L 24.154 6.849 L 24.154 3.992 L 27.553 3.992 L 27.553 6.849 L 28.874 6.849 L 28.874 0 L 27.553 0 L 27.553 2.837 L 24.154 2.837 L 24.154 0 L 22.833 0 L 22.833 6.849 Z"
        fill="#33348e"/>
    <path
        id="path_5"
        d="M 35.252 4.736 L 35.252 4.227 C 35.252 2.612 34.325 1.761 32.855 1.761 C 31.14 1.761 30.106 2.926 30.106 4.393 C 30.106 5.88 31.172 6.908 32.834 6.908 C 33.792 6.908 34.528 6.565 35.103 5.949 L 34.421 5.235 C 34.091 5.616 33.611 5.88 32.94 5.88 C 32.098 5.88 31.555 5.499 31.406 4.736 L 35.252 4.736 Z M 31.395 3.865 C 31.523 3.16 32.003 2.749 32.791 2.749 C 33.59 2.749 33.963 3.17 33.974 3.865 L 31.395 3.865 Z"
        fill="#33348e"/>
    <path
        id="path_6"
        d="M 41.694 5.293 L 41.694 1.879 L 40.436 1.879 L 40.436 2.622 C 40.138 2.084 39.499 1.761 38.625 1.761 C 36.974 1.761 36.057 2.945 36.057 4.344 C 36.057 5.753 37.006 6.908 38.614 6.908 C 39.52 6.908 40.223 6.565 40.596 5.939 C 40.703 6.565 41.278 6.908 41.928 6.908 C 42.269 6.908 42.642 6.81 42.972 6.605 L 42.674 5.734 C 42.535 5.812 42.397 5.841 42.258 5.841 C 41.96 5.841 41.694 5.685 41.694 5.293 Z M 37.347 4.335 C 37.347 3.493 37.879 2.808 38.849 2.808 C 39.776 2.808 40.404 3.434 40.404 4.335 C 40.404 5.245 39.776 5.861 38.859 5.861 C 37.954 5.861 37.347 5.235 37.347 4.335 Z"
        fill="#33348e"/>
    <path
        id="path_7"
        d="M 46.693 6.605 L 46.373 5.704 C 46.181 5.802 45.989 5.841 45.808 5.841 C 45.414 5.841 45.116 5.597 45.116 5.137 L 45.116 0 L 43.827 0 L 43.827 5.264 C 43.827 6.331 44.572 6.908 45.499 6.908 C 45.883 6.908 46.288 6.81 46.693 6.605 Z"
        fill="#33348e"/>
    <path
        id="path_8"
        d="M 46.704 1.879 L 46.704 2.935 L 47.802 2.935 L 47.802 5.225 C 47.802 6.301 48.59 6.908 49.634 6.908 C 50.145 6.908 50.668 6.761 51.158 6.468 L 50.817 5.607 C 50.54 5.763 50.231 5.841 49.975 5.841 C 49.485 5.841 49.091 5.587 49.091 5.029 L 49.091 2.935 L 50.7 2.935 L 50.7 1.879 L 49.091 1.879 L 49.091 0.607 L 47.802 0.607 L 47.802 1.879 L 46.704 1.879 Z"
        fill="#33348e"/>
    <path
        id="path_9"
        d="M 52.067 0 L 52.067 6.849 L 53.356 6.849 L 53.356 4.178 C 53.356 3.278 53.953 2.808 54.667 2.808 C 55.306 2.808 55.711 3.17 55.711 3.845 L 55.711 6.849 L 57 6.849 L 57 3.581 C 57 2.387 56.201 1.761 55.072 1.761 C 54.198 1.761 53.676 2.114 53.356 2.603 L 53.356 0 L 52.067 0 Z"
        fill="#33348e"/>
</svg>
