<svg width="20" height="20" viewBox="0 0 20 20" fill="none" xmlns="http://www.w3.org/2000/svg">
<path d="M0 4.8C0 3.11984 0 2.27976 0.32698 1.63803C0.614601 1.07354 1.07354 0.614601 1.63803 0.32698C2.27976 0 3.11984 0 4.8 0H15.2C16.8802 0 17.7202 0 18.362 0.32698C18.9265 0.614601 19.3854 1.07354 19.673 1.63803C20 2.27976 20 3.11984 20 4.8V15.2C20 16.8802 20 17.7202 19.673 18.362C19.3854 18.9265 18.9265 19.3854 18.362 19.673C17.7202 20 16.8802 20 15.2 20H4.8C3.11984 20 2.27976 20 1.63803 19.673C1.07354 19.3854 0.614601 18.9265 0.32698 18.362C0 17.7202 0 16.8802 0 15.2V4.8Z" fill="#1BC8C8"/>
<path d="M16.9844 4.98438C16.8875 4.88674 16.7723 4.80925 16.6454 4.75637C16.5185 4.70348 16.3823 4.67625 16.2448 4.67625C16.1073 4.67625 15.9711 4.70348 15.8442 4.75637C15.7173 4.80925 15.6021 4.88674 15.5052 4.98438L7.7448 12.7552L4.48438 9.48438C4.38384 9.38725 4.26515 9.31088 4.13509 9.25963C4.00504 9.20838 3.86616 9.18324 3.72639 9.18566C3.58661 9.18808 3.44869 9.218 3.32048 9.27372C3.19227 9.32945 3.0763 9.40988 2.97918 9.51042C2.88205 9.61096 2.80568 9.72965 2.75443 9.85971C2.70317 9.98977 2.67804 10.1286 2.68046 10.2684C2.68288 10.4082 2.7128 10.5461 2.76852 10.6743C2.82424 10.8025 2.90467 10.9185 3.00522 11.0156L7.00522 15.0156C7.10205 15.1133 7.21726 15.1908 7.3442 15.2436C7.47114 15.2965 7.60729 15.3237 7.7448 15.3237C7.88231 15.3237 8.01847 15.2965 8.1454 15.2436C8.27234 15.1908 8.38755 15.1133 8.48438 15.0156L16.9844 6.51563C17.0901 6.41808 17.1745 6.2997 17.2322 6.16793C17.2899 6.03616 17.3197 5.89386 17.3197 5.75C17.3197 5.60615 17.2899 5.46385 17.2322 5.33208C17.1745 5.20031 17.0901 5.08192 16.9844 4.98438V4.98438Z" fill="white"/>
</svg>
