<svg
    xmlns="http://www.w3.org/2000/svg"
    viewBox="0 0 20 20"
    id="vector">
    <path
        id="path"
        d="M 10 20 C 4.477 20 0 15.523 0 10 C 0 4.477 4.477 0 10 0 C 15.523 0 20 4.477 20 10 C 20 15.523 15.523 20 10 20 Z M 10 18 C 12.122 18 14.157 17.157 15.657 15.657 C 17.157 14.157 18 12.122 18 10 C 18 7.878 17.157 5.843 15.657 4.343 C 14.157 2.843 12.122 2 10 2 C 7.878 2 5.843 2.843 4.343 4.343 C 2.843 5.843 2 7.878 2 10 C 2 12.122 2.843 14.157 4.343 15.657 C 5.843 17.157 7.878 18 10 18 Z M 10 8.586 L 12.828 5.757 L 14.243 7.172 L 11.414 10 L 14.243 12.828 L 12.828 14.243 L 10 11.414 L 7.172 14.243 L 5.757 12.828 L 8.586 10 L 5.757 7.172 L 7.172 5.757 L 10 8.586 Z"
        fill="#000000"/>
</svg>
