<svg width="29" height="34" viewBox="0 0 29 34" fill="none" xmlns="http://www.w3.org/2000/svg">
<path d="M19.3333 2.8335L25.375 9.91683V29.7615C25.3747 30.1343 25.2481 30.4918 25.0231 30.7553C24.7982 31.0188 24.4931 31.1668 24.1751 31.1668H4.82488C4.50754 31.1642 4.20381 31.0154 3.9793 30.7524C3.7548 30.4895 3.62753 30.1335 3.625 29.7615V4.23883C3.625 3.4625 4.16271 2.8335 4.82488 2.8335H19.3333ZM14.5 22.6668C15.7819 22.6668 17.0113 22.0698 17.9177 21.0071C18.8241 19.9444 19.3333 18.5031 19.3333 17.0002C19.3333 15.4973 18.8241 14.0559 17.9177 12.9932C17.0113 11.9305 15.7819 11.3335 14.5 11.3335H9.66667V22.6668H14.5ZM12.0833 14.1668H14.5C15.1409 14.1668 15.7556 14.4653 16.2088 14.9967C16.6621 15.528 16.9167 16.2487 16.9167 17.0002C16.9167 17.7516 16.6621 18.4723 16.2088 19.0036C15.7556 19.535 15.1409 19.8335 14.5 19.8335H12.0833V14.1668Z" fill="#FF2C37"/>
</svg>
