<svg width="28" height="28" viewBox="0 0 28 28" fill="none" xmlns="http://www.w3.org/2000/svg">
<path d="M4.4135 3.29684L14 1.1665L23.5865 3.29684C23.8456 3.35443 24.0773 3.49863 24.2433 3.70564C24.4094 3.91266 24.5 4.17011 24.5 4.4355V16.087C24.4999 17.2394 24.2153 18.3739 23.6715 19.3898C23.1277 20.4058 22.3415 21.2718 21.3827 21.911L14 26.8332L6.61733 21.911C5.65865 21.2719 4.87254 20.4061 4.32874 19.3904C3.78494 18.3746 3.50028 17.2403 3.5 16.0882V4.4355C3.50005 4.17011 3.59058 3.91266 3.75665 3.70564C3.92273 3.49863 4.15443 3.35443 4.4135 3.29684V3.29684ZM12.8333 11.6665H9.33333V13.9998H12.8333V17.4998H15.1667V13.9998H18.6667V11.6665H15.1667V8.1665H12.8333V11.6665Z" fill="#1BC8C8"/>
</svg>
