<svg width="17" height="17" viewBox="0 0 17 17" fill="none" xmlns="http://www.w3.org/2000/svg">
<path fill-rule="evenodd" clip-rule="evenodd" d="M2.72539 2.04901C2.72539 1.82817 2.90009 1.6624 3.09935 1.6624L10.6402 1.6624L13.2129 4.26849V8.4999H14.4129V4.02222V3.77596L14.2399 3.60071L11.318 0.640884L11.1418 0.462402L10.891 0.462402L3.09935 0.462402C2.2228 0.462402 1.52539 1.18007 1.52539 2.04901L1.52539 13.8883C1.52539 14.7572 2.2228 15.4749 3.09935 15.4749H9.56289L9.56289 14.2749H3.09935C2.90009 14.2749 2.72539 14.1091 2.72539 13.8883L2.72539 2.04901ZM11.4579 10.1404L11.0276 9.37755L10.4716 10.0543L9.43466 11.3168L8.50149 11.3151L7.90149 11.314L7.89929 12.514L8.49929 12.5151L9.71675 12.5173L10.001 12.5178L10.1815 12.2982L10.843 11.4928L12.3606 14.1831L12.8705 15.087L13.3994 14.1941L14.6861 12.0218H15.8051V10.8218H14.3441H14.0022L13.8279 11.116L12.8959 12.6896L11.4579 10.1404ZM4.78164 4.18115H4.18164V5.38115H4.78164H6.90664H7.50664V4.18115H6.90664H4.78164ZM4.78164 7.36865H4.18164V8.56865H4.78164H9.03164H9.63164V7.36865H9.03164L4.78164 7.36865Z" fill="#5F6989"/>
</svg>
