<svg width="20" height="20" viewBox="0 0 20 20" fill="none" xmlns="http://www.w3.org/2000/svg">
<path d="M15.0262 13.8473L18.5953 17.4157L17.4162 18.5948L13.8478 15.0257C12.5201 16.09 10.8687 16.6689 9.16699 16.6665C5.02699 16.6665 1.66699 13.3065 1.66699 9.1665C1.66699 5.0265 5.02699 1.6665 9.16699 1.6665C13.307 1.6665 16.667 5.0265 16.667 9.1665C16.6694 10.8682 16.0905 12.5196 15.0262 13.8473ZM13.3545 13.229C14.4121 12.1414 15.0027 10.6835 15.0003 9.1665C15.0003 5.94317 12.3895 3.33317 9.16699 3.33317C5.94366 3.33317 3.33366 5.94317 3.33366 9.1665C3.33366 12.389 5.94366 14.9998 9.16699 14.9998C10.684 15.0022 12.1419 14.4116 13.2295 13.354L13.3545 13.229V13.229Z" fill="#5F6989" fill-opacity="0.69"/>
</svg>
