<svg width="17" height="17" viewBox="0 0 17 17" fill="none" xmlns="http://www.w3.org/2000/svg">
<path fill-rule="evenodd" clip-rule="evenodd" d="M2.72499 2.04901C2.72499 1.82817 2.8997 1.6624 3.09895 1.6624L10.6398 1.6624L13.2125 4.26849V8.4999H14.4125V4.02222V3.77596L14.2395 3.60071L11.3176 0.640884L11.1414 0.462402L10.8906 0.462402L3.09895 0.462402C2.2224 0.462402 1.52499 1.18007 1.52499 2.04901L1.52499 13.8883C1.52499 14.7572 2.2224 15.4749 3.09895 15.4749H9.56249L9.56249 14.2749H3.09895C2.8997 14.2749 2.72499 14.1091 2.72499 13.8883L2.72499 2.04901ZM11.4575 10.1404L11.0272 9.37755L10.4712 10.0543L9.43426 11.3168L8.5011 11.3151L7.9011 11.314L7.89889 12.514L8.49889 12.5151L9.71635 12.5173L10.0006 12.5178L10.1811 12.2982L10.8426 11.4928L12.3602 14.1831L12.8701 15.087L13.399 14.1941L14.6857 12.0218H15.8047V10.8218H14.3437H14.0018L13.8275 11.116L12.8955 12.6896L11.4575 10.1404ZM4.78124 4.18115H4.18124V5.38115H4.78124H6.90624H7.50624V4.18115H6.90624H4.78124ZM4.78124 7.36865H4.18124V8.56865H4.78124H9.03124H9.63124V7.36865H9.03124L4.78124 7.36865Z" fill="#5F6989"/>
</svg>
