<svg
    xmlns="http://www.w3.org/2000/svg"
    viewBox="0 0 20 20"
    id="vector">
    <path
        id="path"
        d="M 15 2 L 19 2 C 19.265 2 19.52 2.105 19.707 2.293 C 19.895 2.48 20 2.735 20 3 L 20 19 C 20 19.265 19.895 19.52 19.707 19.707 C 19.52 19.895 19.265 20 19 20 L 1 20 C 0.735 20 0.48 19.895 0.293 19.707 C 0.105 19.52 0 19.265 0 19 L 0 3 C 0 2.735 0.105 2.48 0.293 2.293 C 0.48 2.105 0.735 2 1 2 L 5 2 L 5 0 L 7 0 L 7 2 L 13 2 L 13 0 L 15 0 L 15 2 Z M 18 10 L 2 10 L 2 18 L 18 18 L 18 10 Z M 13 4 L 7 4 L 7 6 L 5 6 L 5 4 L 2 4 L 2 8 L 18 8 L 18 4 L 15 4 L 15 6 L 13 6 L 13 4 Z M 4 12 L 6 12 L 6 14 L 4 14 L 4 12 Z M 9 12 L 11 12 L 11 14 L 9 14 L 9 12 Z M 14 12 L 16 12 L 16 14 L 14 14 L 14 12 Z"
        fill="#000000"/>
</svg>
