<svg width="138" height="27" viewBox="0 0 138 27" fill="none" xmlns="http://www.w3.org/2000/svg">
<path d="M18.6942 4.79271C15.395 3.29137 13.5128 6.04387 12.9841 7.29498C11.398 2.60334 6.30028 4.79271 5.37072 6.3566C4.44115 7.9205 3.48948 10.1099 5.37072 13.5505C6.78033 16.1285 10.975 20.1189 12.6669 21.6828V27C5.68794 21.6828 1.98697 16.8868 0.929546 14.1761C-0.127872 11.4653 -1.16414 5.23062 3.15012 1.97772C7.46439 -1.27518 11.2922 0.205311 12.6669 1.35217C21.5492 -2.6514 25.3064 4.79268 25.0608 8.54605C24.5532 16.303 16.4957 20.0146 12.689 21.37V16.6783C15.2268 15.74 18.1655 13.5505 18.6942 12.925C20.3024 11.3611 21.9933 6.29405 18.6942 4.79271Z" fill="#1BC8C8"/>
<path d="M40.7667 8.93159H45.2029V6.63766H33.9054V8.93159H38.3219V20.2457H40.7667V8.93159Z" fill="white"/>
<path d="M54.7784 16.0466V15.0357C54.7784 11.8281 53.0631 10.1369 50.3422 10.1369C47.1679 10.1369 45.2554 12.4502 45.2554 15.3662C45.2554 18.3211 47.227 20.3623 50.3028 20.3623C52.0773 20.3623 53.4377 19.6819 54.5024 18.4572L53.2405 17.0381C52.6293 17.7962 51.7421 18.3211 50.5 18.3211C48.9424 18.3211 47.9368 17.5629 47.6608 16.0466H54.7784ZM47.6411 14.3165C47.8777 12.9168 48.7649 12.1003 50.2239 12.1003C51.7027 12.1003 52.3927 12.9362 52.4124 14.3165H47.6411Z" fill="white"/>
<path d="M62.164 19.7597L61.5725 17.9712C61.2176 18.1656 60.8628 18.2433 60.5276 18.2433C59.7981 18.2433 59.246 17.7573 59.246 16.8437V6.63766H56.8603V17.0964C56.8603 19.2153 58.2405 20.3623 59.9558 20.3623C60.6656 20.3623 61.4148 20.1679 62.164 19.7597Z" fill="white"/>
<path d="M72.4923 16.0466V15.0357C72.4923 11.8281 70.777 10.1369 68.0561 10.1369C64.8818 10.1369 62.9693 12.4502 62.9693 15.3662C62.9693 18.3211 64.941 20.3623 68.0167 20.3623C69.7912 20.3623 71.1516 19.6819 72.2163 18.4572L70.9544 17.0381C70.3432 17.7962 69.456 18.3211 68.2139 18.3211C66.6563 18.3211 65.6507 17.5629 65.3747 16.0466H72.4923ZM65.355 14.3165C65.5916 12.9168 66.4788 12.1003 67.9378 12.1003C69.4166 12.1003 70.1066 12.9362 70.1264 14.3165H65.355Z" fill="white"/>
<path d="M74.7714 20.2457H77.2162V14.5692H83.5058V20.2457H85.9506V6.63766H83.5058V12.2753H77.2162V6.63766H74.7714V20.2457Z" fill="white"/>
<path d="M97.7539 16.0466V15.0357C97.7539 11.8281 96.0386 10.1369 93.3177 10.1369C90.1434 10.1369 88.2309 12.4502 88.2309 15.3662C88.2309 18.3211 90.2026 20.3623 93.2783 20.3623C95.0528 20.3623 96.4132 19.6819 97.4779 18.4572L96.216 17.0381C95.6048 17.7962 94.7176 18.3211 93.4755 18.3211C91.9179 18.3211 90.9123 17.5629 90.6363 16.0466H97.7539ZM90.6166 14.3165C90.8532 12.9168 91.7404 12.1003 93.1994 12.1003C94.6782 12.1003 95.3682 12.9362 95.388 14.3165H90.6166Z" fill="white"/>
<path d="M109.674 17.1547V10.3701H107.348V11.8476C106.796 10.7784 105.613 10.1369 103.996 10.1369C100.94 10.1369 99.2444 12.4891 99.2444 15.269C99.2444 18.0684 100.999 20.3623 103.976 20.3623C105.652 20.3623 106.953 19.6819 107.644 18.4377C107.841 19.6819 108.905 20.3623 110.108 20.3623C110.739 20.3623 111.429 20.1679 112.04 19.7597L111.488 18.0295C111.232 18.185 110.976 18.2433 110.719 18.2433C110.167 18.2433 109.674 17.9323 109.674 17.1547ZM101.63 15.2496C101.63 13.5777 102.616 12.2169 104.41 12.2169C106.125 12.2169 107.289 13.4611 107.289 15.2496C107.289 17.0575 106.125 18.2822 104.43 18.2822C102.754 18.2822 101.63 17.0381 101.63 15.2496Z" fill="white"/>
<path d="M118.926 19.7597L118.334 17.9712C117.979 18.1656 117.624 18.2433 117.289 18.2433C116.56 18.2433 116.008 17.7573 116.008 16.8437V6.63766H113.622V17.0964C113.622 19.2153 115.002 20.3623 116.717 20.3623C117.427 20.3623 118.176 20.1679 118.926 19.7597Z" fill="white"/>
<path d="M118.947 10.3701V12.4697H120.978V17.0186C120.978 19.157 122.437 20.3623 124.369 20.3623C125.315 20.3623 126.281 20.0707 127.188 19.4875L126.557 17.7768C126.045 18.0878 125.473 18.2433 125 18.2433C124.093 18.2433 123.363 17.7379 123.363 16.6298V12.4697H126.34V10.3701H123.363V7.84295H120.978V10.3701H118.947Z" fill="white"/>
<path d="M128.871 6.63766V20.2457H131.257V14.9385C131.257 13.1501 132.361 12.2169 133.682 12.2169C134.865 12.2169 135.614 12.9362 135.614 14.2776V20.2457H138V13.7527C138 11.381 136.521 10.1369 134.431 10.1369C132.815 10.1369 131.848 10.8367 131.257 11.8087V6.63766H128.871Z" fill="white"/>
</svg>
