<svg width="22" height="22" viewBox="0 0 22 22" fill="none" xmlns="http://www.w3.org/2000/svg">
<path d="M11.8291 7.77073C14.6674 7.77073 17.1116 7.75419 19.9498 7.78313C20.601 7.78933 20.8925 7.61982 20.8325 6.92523C20.7788 6.31541 20.8387 5.69524 20.816 5.08128C20.7705 3.84095 20.202 3.33241 18.9534 3.26419C18.4408 3.23525 17.5477 3.60735 17.5539 2.74119C17.5622 1.88536 18.4552 2.24506 18.9658 2.23472C20.94 2.19751 21.986 3.24559 21.9922 5.23425C22.0026 9.57334 22.0026 13.9124 21.9922 18.2536C21.9881 20.1968 20.8863 21.2758 18.9142 21.2779C13.4774 21.2862 8.43476 21.2862 2.99798 21.2779C1.04653 21.2738 0.00878567 20.2381 0.00465124 18.3156C-0.00155041 13.9083 -0.00155041 9.49892 0.00465124 5.09161C0.00671845 3.19391 1.00105 2.22645 2.92976 2.22025C3.51065 2.21818 4.09774 2.1727 4.67242 2.23059C5.42076 2.30501 5.65849 1.98459 5.56133 1.2962C5.54272 1.16184 5.55926 1.02333 5.55926 0.886896C5.56133 0.465184 5.54892 -0.0061411 6.13601 6.05508e-05C6.71277 0.0062622 6.71897 0.494125 6.72517 0.899299C6.74171 2.12929 6.73964 3.35929 6.72517 4.58928C6.72104 4.99652 6.71483 5.49472 6.14428 5.49472C5.48484 5.49679 5.56133 4.95311 5.56133 4.51693C5.55513 3.19391 5.74738 3.27867 4.27552 3.2766C1.27599 3.27453 1.06307 3.48539 1.06307 6.44357C1.06307 10.2369 1.061 14.0282 1.06307 17.8215C1.06513 19.5973 1.55093 20.0975 3.27705 20.0975C8.5774 20.0996 13.4836 20.0996 18.7839 20.0975C20.3571 20.0975 20.8119 19.6614 20.8181 18.1047C20.8305 15.3719 20.7953 12.637 20.8387 9.90409C20.8511 9.12475 20.5907 8.92423 19.8382 8.92837C14.3332 8.95524 9.22237 8.94284 3.7153 8.94284C3.40729 8.94284 3.09927 8.95111 2.79333 8.92216C2.49151 8.89529 2.28066 8.73405 2.26619 8.40329C2.24965 8.03326 2.44397 7.81 2.80366 7.78933C3.31426 7.76039 3.829 7.77073 4.34167 7.77073C6.8368 7.76866 9.33193 7.77073 11.8291 7.77073Z" fill="#252E4B"/>
<path d="M16.8189 2.74339C16.8189 3.4235 16.8272 4.10568 16.8148 4.7858C16.8086 5.15169 16.7011 5.48245 16.2608 5.50312C15.7523 5.52586 15.6716 5.1765 15.6344 4.76099C15.5063 3.27673 15.498 3.27673 13.9807 3.27673C12.2421 3.27673 10.5036 3.2788 8.76713 3.27466C8.36609 3.27259 7.85136 3.34701 7.84722 2.75372C7.84102 2.15836 8.35369 2.22245 8.7568 2.22038C10.7331 2.21625 12.7114 2.18317 14.6856 2.23692C15.4608 2.25759 15.7605 2.01573 15.6406 1.25706C15.6241 1.15783 15.6365 1.0524 15.6386 0.951111C15.651 0.508727 15.5889 -0.0287494 16.2484 0.00225887C16.8851 0.0311999 16.8107 0.570743 16.8189 1.00693C16.8293 1.58575 16.821 2.16457 16.821 2.74339C16.821 2.74339 16.821 2.74339 16.8189 2.74339Z" fill="#252E4B"/>
<path d="M11.2194 11.4531C11.7527 11.4903 12.0318 11.8294 12.0029 12.3172C11.9739 12.7989 11.6762 13.14 11.1305 13.0966C10.6158 13.0552 10.3057 12.7431 10.3305 12.2366C10.3532 11.7239 10.6985 11.4676 11.2194 11.4531Z" fill="#1BC8C8"/>
<path d="M6.97317 12.3161C6.87601 12.8267 6.58453 13.1182 6.05946 13.0955C5.49098 13.0686 5.31319 12.6965 5.3442 12.1838C5.37521 11.6877 5.64602 11.4396 6.14215 11.4624C6.68583 11.483 6.91529 11.8179 6.97317 12.3161Z" fill="#1BC8C8"/>
<path d="M12.0396 16.7811C11.8763 17.2483 11.6241 17.6142 11.1114 17.5853C10.607 17.5564 10.2887 17.2277 10.328 16.7191C10.3672 16.2292 10.6732 15.946 11.2127 15.9563C11.7792 15.9687 11.9383 16.3429 12.0396 16.7811Z" fill="#1BC8C8"/>
<path d="M16.2903 17.6153C15.7424 17.5326 15.42 17.2887 15.4034 16.7533C15.389 16.2592 15.6391 15.9946 16.1352 15.9595C16.6768 15.9223 16.9931 16.1889 17.0345 16.7078C17.0799 17.2432 16.7182 17.4872 16.2903 17.6153Z" fill="#1BC8C8"/>
<path d="M6.15445 17.6067C5.67485 17.5261 5.35237 17.2946 5.34203 16.753C5.33376 16.2651 5.54462 15.984 6.05315 15.9633C6.58236 15.9406 6.91311 16.199 6.95239 16.7137C6.99374 17.2346 6.65885 17.5034 6.15445 17.6067Z" fill="#1BC8C8"/>
<path d="M17.0546 12.2434C16.9967 12.7478 16.7404 13.0848 16.2215 13.0868C15.7027 13.0889 15.407 12.7767 15.4112 12.2558C15.4153 11.7824 15.6944 11.4971 16.1636 11.4682C16.6908 11.4351 16.9595 11.7493 17.0546 12.2434Z" fill="#1BC8C8"/>
</svg>
