<svg width="18" height="18" viewBox="0 0 18 18" fill="none" xmlns="http://www.w3.org/2000/svg">
<path d="M5.39999 8.49961H4.89999V9.49961H5.39999V8.49961ZM12.6 9.49961H13.1V8.49961H12.6V9.49961ZM5.39999 4.89961H4.89999V5.89961H5.39999V4.89961ZM7.79999 5.89961H8.29999V4.89961H7.79999V5.89961ZM12.6 0.599609L12.9535 0.246056L12.8071 0.0996094H12.6V0.599609ZM16.2 4.19961H16.7V3.9925L16.5535 3.84606L16.2 4.19961ZM9.59999 13.1996L9.24643 13.5532L9.24643 13.5532L9.59999 13.1996ZM8.99999 13.7996L9.22359 14.2468L9.26392 14.2267L9.29999 14.1996L8.99999 13.7996ZM5.39999 9.49961H12.6V8.49961H5.39999V9.49961ZM5.39999 5.89961H7.79999V4.89961H5.39999V5.89961ZM15 16.8996H2.99999V17.8996H15V16.8996ZM2.29999 16.1996V1.79961H1.29999V16.1996H2.29999ZM2.99999 1.09961H12.6V0.0996094H2.99999V1.09961ZM15.7 4.19961V16.1996H16.7V4.19961H15.7ZM12.2464 0.953163L15.8464 4.55316L16.5535 3.84606L12.9535 0.246056L12.2464 0.953163ZM2.99999 16.8996C2.61339 16.8996 2.29999 16.5862 2.29999 16.1996H1.29999C1.29999 17.1385 2.0611 17.8996 2.99999 17.8996V16.8996ZM15 17.8996C15.9389 17.8996 16.7 17.1385 16.7 16.1996H15.7C15.7 16.5862 15.3866 16.8996 15 16.8996V17.8996ZM2.29999 1.79961C2.29999 1.41301 2.61339 1.09961 2.99999 1.09961V0.0996094C2.0611 0.0996094 1.29999 0.860726 1.29999 1.79961H2.29999ZM6.47433 13.9577C6.6188 13.5243 7.02419 13.131 7.53972 12.9925C8.02796 12.8613 8.646 12.9527 9.24643 13.5532L9.95354 12.8461C9.11397 12.0065 8.13202 11.7979 7.28026 12.0267C6.45578 12.2482 5.78117 12.8749 5.52565 13.6415L6.47433 13.9577ZM9.24643 13.5532C9.28821 13.5949 9.32174 13.6331 9.34846 13.6675L10.1381 13.054C10.0831 12.9832 10.0215 12.914 9.95354 12.8461L9.24643 13.5532ZM9.34846 13.6675C9.45384 13.8032 9.44565 13.8664 9.44485 13.8732C9.44322 13.8871 9.43197 13.9347 9.34836 14.0107C9.2643 14.0871 9.13511 14.1652 8.97101 14.2318C8.80959 14.2973 8.63449 14.3436 8.47546 14.3677C8.30923 14.3928 8.19361 14.3887 8.14101 14.3783C8.11283 14.3728 8.13908 14.3724 8.18382 14.4053C8.24232 14.4483 8.31984 14.5428 8.32597 14.6803C8.33097 14.7927 8.2833 14.8517 8.29197 14.8395C8.29733 14.8319 8.32473 14.7981 8.3975 14.7393C8.5422 14.6223 8.80103 14.4581 9.22359 14.2468L8.77638 13.3524C8.32637 13.5774 7.99461 13.779 7.76879 13.9616C7.6563 14.0526 7.55345 14.152 7.47582 14.2616C7.40152 14.3666 7.31813 14.5268 7.32696 14.7248C7.3369 14.948 7.45777 15.1127 7.5914 15.211C7.71127 15.2991 7.84443 15.3391 7.94721 15.3594C8.15652 15.4007 8.39899 15.3906 8.62505 15.3564C9.07084 15.289 9.63952 15.0976 10.0211 14.7506C10.219 14.5707 10.3995 14.3175 10.438 13.99C10.4774 13.6554 10.3577 13.3367 10.1381 13.054L9.34846 13.6675ZM9.29999 14.1996C9.52609 14.03 9.7401 13.907 9.94186 13.8197L9.54474 12.9019C9.26445 13.0232 8.98292 13.1874 8.69999 13.3996L9.29999 14.1996ZM9.94186 13.8197C10.7621 13.4647 11.4918 13.6569 12.2163 14.0019C12.398 14.0885 12.5751 14.1826 12.7528 14.2788C12.9267 14.3729 13.1076 14.4726 13.2797 14.5598C13.6094 14.7266 14.0018 14.8996 14.4 14.8996V13.8996C14.2618 13.8996 14.0579 13.8328 13.7313 13.6675C13.5753 13.5886 13.4131 13.4991 13.2289 13.3994C13.0485 13.3017 12.8526 13.1973 12.6462 13.0991C11.8185 12.7049 10.7562 12.3777 9.54474 12.9019L9.94186 13.8197Z" fill="#252E4B"/>
</svg>
