<svg width="181" height="36" viewBox="0 0 181 36" fill="none" xmlns="http://www.w3.org/2000/svg">
<path d="M24.5192 6.37545C20.192 4.37831 17.7233 8.03979 17.0299 9.70408C14.9495 3.46307 8.26342 6.37545 7.0442 8.45581C5.82499 10.5362 4.57678 13.4487 7.0442 18.0254C8.89304 21.4548 14.3948 26.7629 16.6138 28.8433V35.9165C7.46027 28.8433 2.6061 22.4635 1.21919 18.8576C-0.167716 15.2516 -1.52688 6.95798 4.13168 2.63085C9.79025 -1.69629 14.8108 0.273113 16.6138 1.79871C28.2638 -3.527 33.1917 6.37542 32.8696 11.3683C32.2039 21.6869 21.6357 26.6242 16.6428 28.4272V22.1861C19.9714 20.9379 23.8257 18.0254 24.5192 17.1933C26.6285 15.1129 28.8463 8.37259 24.5192 6.37545Z" fill="#1BC8C8"/>
<path d="M53.4695 11.8812H59.2879V8.8297H44.4702V11.8812H50.2628V26.9316H53.4695V11.8812Z" fill="white"/>
<path d="M71.8471 21.3459V20.0012C71.8471 15.7343 69.5973 13.4845 66.0287 13.4845C61.8652 13.4845 59.3568 16.5618 59.3568 20.4408C59.3568 24.3715 61.9428 27.0868 65.9769 27.0868C68.3043 27.0868 70.0887 26.1817 71.4851 24.5525L69.8301 22.6647C69.0284 23.6733 67.8647 24.3715 66.2355 24.3715C64.1926 24.3715 62.8738 23.3629 62.5117 21.3459H71.8471ZM62.4859 19.0443C62.7962 17.1824 63.9599 16.0963 65.8735 16.0963C67.813 16.0963 68.7181 17.2083 68.7439 19.0443H62.4859Z" fill="white"/>
<path d="M81.5341 26.2851L80.7583 23.906C80.2928 24.1646 79.8273 24.268 79.3877 24.268C78.4309 24.268 77.7068 23.6215 77.7068 22.4061V8.8297H74.5778V22.7423C74.5778 25.561 76.388 27.0868 78.6378 27.0868C79.5687 27.0868 80.5514 26.8282 81.5341 26.2851Z" fill="white"/>
<path d="M95.0806 21.3459V20.0012C95.0806 15.7343 92.8308 13.4845 89.2621 13.4845C85.0987 13.4845 82.5903 16.5618 82.5903 20.4408C82.5903 24.3715 85.1763 27.0868 89.2104 27.0868C91.5378 27.0868 93.3221 26.1817 94.7186 24.5525L93.0635 22.6647C92.2619 23.6733 91.0982 24.3715 89.469 24.3715C87.4261 24.3715 86.1072 23.3629 85.7452 21.3459H95.0806ZM85.7193 19.0443C86.0297 17.1824 87.1933 16.0963 89.107 16.0963C91.0465 16.0963 91.9516 17.2083 91.9774 19.0443H85.7193Z" fill="white"/>
<path d="M98.0698 26.9316H101.276V19.3805H109.526V26.9316H112.732V8.8297H109.526V16.3291H101.276V8.8297H98.0698V26.9316Z" fill="white"/>
<path d="M128.214 21.3459V20.0012C128.214 15.7343 125.964 13.4845 122.395 13.4845C118.232 13.4845 115.723 16.5618 115.723 20.4408C115.723 24.3715 118.309 27.0868 122.343 27.0868C124.671 27.0868 126.455 26.1817 127.852 24.5525L126.197 22.6647C125.395 23.6733 124.231 24.3715 122.602 24.3715C120.559 24.3715 119.24 23.3629 118.878 21.3459H128.214ZM118.852 19.0443C119.163 17.1824 120.326 16.0963 122.24 16.0963C124.179 16.0963 125.085 17.2083 125.11 19.0443H118.852Z" fill="white"/>
<path d="M143.848 22.8199V13.7948H140.797V15.7601C140.073 14.3379 138.521 13.4845 136.401 13.4845C132.392 13.4845 130.168 16.6135 130.168 20.3115C130.168 24.0353 132.47 27.0868 136.375 27.0868C138.573 27.0868 140.28 26.1817 141.185 24.5266C141.443 26.1817 142.84 27.0868 144.417 27.0868C145.245 27.0868 146.15 26.8282 146.951 26.2851L146.227 23.9836C145.891 24.1905 145.555 24.268 145.219 24.268C144.495 24.268 143.848 23.8543 143.848 22.8199ZM133.297 20.2856C133.297 18.0617 134.59 16.2515 136.944 16.2515C139.194 16.2515 140.719 17.9065 140.719 20.2856C140.719 22.6906 139.194 24.3198 136.97 24.3198C134.771 24.3198 133.297 22.6647 133.297 20.2856Z" fill="white"/>
<path d="M155.982 26.2851L155.206 23.906C154.741 24.1646 154.275 24.268 153.836 24.268C152.879 24.268 152.155 23.6215 152.155 22.4061V8.8297H149.026V22.7423C149.026 25.561 150.836 27.0868 153.086 27.0868C154.017 27.0868 155 26.8282 155.982 26.2851Z" fill="white"/>
<path d="M156.01 13.7948V16.5877H158.674V22.6389C158.674 25.4835 160.587 27.0868 163.122 27.0868C164.363 27.0868 165.63 26.6989 166.82 25.9231L165.992 23.6474C165.32 24.0612 164.57 24.268 163.949 24.268C162.76 24.268 161.803 23.5957 161.803 22.1217V16.5877H165.708V13.7948H161.803V10.433H158.674V13.7948H156.01Z" fill="white"/>
<path d="M169.027 8.8297V26.9316H172.156V19.8719C172.156 17.4928 173.604 16.2515 175.337 16.2515C176.888 16.2515 177.871 17.2083 177.871 18.9926V26.9316H181V18.2944C181 15.1395 179.061 13.4845 176.319 13.4845C174.199 13.4845 172.932 14.4154 172.156 15.7084V8.8297H169.027Z" fill="white"/>
</svg>
