<svg
    xmlns="http://www.w3.org/2000/svg"
    viewBox="0 0 47 41"
    id="vector">
    <path
        id="path_1"
        d="M 20.122 40.984 C 10.195 41.438 0.487 32.947 1.019 21.456 C 1.567 9.653 11.681 1.502 22.959 3.231 C 23.856 3.369 24.916 3.58 24.66 4.745 C 24.372 6.06 23.158 5.618 22.277 5.504 C 11.721 4.116 2.427 12.81 3.292 23.295 C 3.982 31.656 10.333 37.899 19.096 38.828 C 26.385 39.6 33.881 34.157 36.21 26.55 C 36.527 25.523 36.097 23.287 37.984 23.798 C 39.863 24.305 38.625 26.165 38.317 27.289 C 36.064 35.516 28.735 40.976 20.122 40.984 Z"
        fill="#252e4b"/>
    <path
        id="path_2"
        d="M 21.126 21.208 C 23.662 22.158 25.996 23.018 28.317 23.907 C 29.097 24.207 29.924 24.601 29.442 25.657 C 29.048 26.521 28.265 26.395 27.514 26.115 C 25.119 25.218 22.725 24.305 20.322 23.432 C 19.311 23.067 18.792 22.418 18.792 21.326 C 18.8 17.551 18.792 13.772 18.796 9.997 C 18.796 9.137 18.962 8.231 19.985 8.195 C 21.316 8.146 21.109 9.262 21.113 10.111 C 21.134 13.739 21.126 17.376 21.126 21.208 Z"
        fill="#252e4b"/>
    <path
        id="path_3"
        d="M 37 20 C 31.477 20 27 15.523 27 10 C 27 4.477 31.477 0 37 0 C 42.523 0 47 4.477 47 10 C 47 15.523 42.523 20 37 20 Z M 37 18 C 39.122 18 41.157 17.157 42.657 15.657 C 44.157 14.157 45 12.122 45 10 C 45 7.878 44.157 5.843 42.657 4.343 C 41.157 2.843 39.122 2 37 2 C 34.878 2 32.843 2.843 31.343 4.343 C 29.843 5.843 29 7.878 29 10 C 29 12.122 29.843 14.157 31.343 15.657 C 32.843 17.157 34.878 18 37 18 Z M 33.5 13 C 33.5 12.448 33.948 12 34.5 12 L 39 12 C 39.133 12 39.26 11.947 39.354 11.854 C 39.447 11.76 39.5 11.633 39.5 11.5 C 39.5 11.367 39.447 11.24 39.354 11.146 C 39.26 11.053 39.133 11 39 11 L 35 11 C 34.337 11 33.701 10.737 33.232 10.268 C 32.763 9.799 32.5 9.163 32.5 8.5 C 32.5 7.837 32.763 7.201 33.232 6.732 C 33.701 6.263 34.337 6 35 6 L 36 6 L 36 5 C 36 4.448 36.448 4 37 4 C 37.552 4 38 4.448 38 5 L 38 6 L 39.5 6 C 40.052 6 40.5 6.448 40.5 7 C 40.5 7.552 40.052 8 39.5 8 L 35 8 C 34.867 8 34.74 8.053 34.646 8.146 C 34.553 8.24 34.5 8.367 34.5 8.5 C 34.5 8.633 34.553 8.76 34.646 8.854 C 34.74 8.947 34.867 9 35 9 L 39 9 C 39.663 9 40.299 9.263 40.768 9.732 C 41.237 10.201 41.5 10.837 41.5 11.5 C 41.5 12.163 41.237 12.799 40.768 13.268 C 40.299 13.737 39.663 14 39 14 L 38 14 L 38 15 C 38 15.552 37.552 16 37 16 C 36.448 16 36 15.552 36 15 L 36 14 L 34.5 14 C 33.948 14 33.5 13.552 33.5 13 Z"
        fill="#1bc8c8"/>
</svg>
