<svg width="160" height="87" viewBox="0 0 160 87" fill="none" xmlns="http://www.w3.org/2000/svg">
<rect x="30.504" y="11.8926" width="107.106" height="74.9745" rx="7" fill="#F2F2F2"/>
<rect width="3.89112" height="3.89112" rx="1.94556" transform="matrix(-1 0 0 1 53.5457 16.8906)" fill="#00B998"/>
<rect width="3.89112" height="3.89112" rx="1.94556" transform="matrix(-1 0 0 1 46.9208 16.8906)" fill="#FF9500"/>
<rect width="3.89112" height="3.89112" rx="1.94556" transform="matrix(-1 0 0 1 40.3 16.8906)" fill="#FF475D"/>
<path d="M84.0116 68.7813C79.0889 68.7836 74.1686 68.7813 69.2459 68.7836C66.6822 68.7836 65.8462 67.8398 66.2983 65.4507C67.5864 58.6311 73.2947 53.4839 80.9403 52.0764C88.9091 50.6098 97.171 54.7021 100.5 61.498C101.167 62.8629 101.685 64.2774 101.919 65.7701C102.233 67.7736 101.339 68.7695 99.1588 68.7766C94.1097 68.7907 89.0607 68.7789 84.0116 68.7813Z" fill="#009C9C"/>
<path d="M84.0858 30.029C88.4397 29.5784 93.7014 33.5331 93.6964 39.2484C93.6914 44.6822 89.3852 48.7421 84.0833 48.7838C78.9344 48.823 74.5154 44.7728 74.4552 39.3537C74.39 33.6066 79.6893 29.5441 84.0858 30.029Z" fill="#1BC8C8"/>
<path d="M43.5539 40.4561C43.5539 37.6946 41.3153 35.4561 38.5539 35.4561H5C2.23858 35.4561 -3.8147e-06 37.6946 -3.8147e-06 40.4561V56.3162C-3.8147e-06 59.0776 2.23857 61.3162 5 61.3162H36.7897C37.4466 61.3162 38.0854 61.5318 38.6079 61.93L41.9478 64.4749C42.606 64.9765 43.5539 64.5071 43.5539 63.6795V54.1706V40.4561Z" fill="#33348E"/>
<path d="M124.61 11.3056C124.61 5.06169 129.672 0 135.915 0H146.58C153.721 0 159.51 5.78898 159.51 12.93C159.51 20.0711 153.721 25.8601 146.58 25.8601H130.964C130.573 25.8601 130.193 25.9883 129.882 26.2251L126.216 29.0189C125.558 29.5204 124.61 29.051 124.61 28.2235V18.7145V11.3056Z" fill="#00B998"/>
<rect width="5.81225" height="5.81225" rx="2.90613" transform="matrix(-1 0 0 1 34.073 45.3257)" fill="white"/>
<rect width="5.81225" height="5.81225" rx="2.90613" transform="matrix(-1 0 0 1 24.176 45.3257)" fill="white"/>
<rect width="5.81225" height="5.81225" rx="2.90613" transform="matrix(-1 0 0 1 14.2851 45.3257)" fill="white"/>
<path d="M141.63 14.4496L142.211 15.0217C142.573 15.3782 143.155 15.3782 143.517 15.0217L149.654 8.97998C149.991 8.64782 150.532 8.64782 150.87 8.97998C151.215 9.31957 151.215 9.87583 150.87 10.2154L143.862 17.1141C143.308 17.6595 142.419 17.6595 141.865 17.1141L137.93 13.2401C137.585 12.9005 137.585 12.3443 137.93 12.0047C138.268 11.6725 138.809 11.6725 139.147 12.0047L140.395 13.2341L141.63 14.4488V14.4496ZM142.257 12.6327C141.914 12.2941 141.913 11.7394 142.257 11.4008L145.353 8.35299C145.689 8.02172 146.229 8.02169 146.565 8.35293C146.909 8.69153 146.909 9.24618 146.566 9.58481L143.47 12.6326C143.134 12.9639 142.594 12.9639 142.257 12.6327ZM138.535 16.2643C138.879 16.6037 138.879 17.1596 138.535 17.4989C138.197 17.8308 137.656 17.8308 137.319 17.4989L132.993 13.2401C132.648 12.9005 132.648 12.3443 132.993 12.0047C133.331 11.6725 133.872 11.6725 134.21 12.0047L134.836 12.6216L134.835 12.6224L138.535 16.2643Z" fill="white"/>
</svg>
