<svg width="59" height="65" viewBox="0 0 59 65" fill="none" xmlns="http://www.w3.org/2000/svg">
<path d="M20.116 40.4848C20.2649 38.9168 20.0013 37.5318 18.8198 36.3217C17.5113 34.9804 17.2969 33.0805 16.6946 31.3896C16.573 31.0468 16.4788 30.7627 16.1045 30.6589C14.9381 30.3379 14.2128 29.5457 13.7689 28.4598C13.157 26.9642 12.653 25.4522 13.0737 23.8023C13.2895 22.9541 13.7088 22.6154 14.6103 22.5662C15.3465 23.2778 15.7535 24.2435 16.4187 24.996C16.6276 24.8786 16.6522 24.7365 16.6659 24.5713C16.7738 23.2669 17.0483 21.9884 17.2573 20.6991C17.5332 18.9972 17.8105 17.294 17.4649 15.5525C17.2969 14.7043 17.4171 13.8671 18.1096 13.2074C18.3677 12.9615 18.6341 12.6801 18.7734 12.3619C19.1244 11.5642 19.7759 11.5574 20.4657 11.6312C23.2589 11.9276 26.0616 12.1051 28.8671 12.2403C29.9256 12.2909 30.9828 12.1994 32.0413 12.1051C33.8401 11.9453 35.6813 12.0573 37.4391 11.7172C38.8364 11.4468 39.5112 11.9849 40.2446 12.9738C40.903 13.8602 41.4124 14.7385 41.1502 15.8557C41.0109 16.4499 41.004 17.0358 41.0177 17.6273C41.0723 20.0749 41.8126 22.4296 42.0284 24.8554C42.0325 24.9004 42.1377 24.9373 42.2633 25.0261C42.8015 24.0577 43.117 22.9254 44.2657 22.487C45.5428 23.316 45.8897 24.3008 45.5032 26.1543C45.3078 27.0913 45.0046 27.9955 44.5812 28.8614C44.1318 29.7806 43.4352 30.3884 42.4587 30.6438C42.1227 30.7313 41.9997 30.9006 41.9069 31.1984C41.676 31.9387 41.366 32.6585 41.1789 33.4083C40.7759 35.0159 39.8731 36.3149 38.7777 37.5059C38.5619 37.7395 38.4048 38.0003 38.3188 38.3063C37.3039 38.9209 36.6046 39.8757 35.7714 40.6842C34.3236 42.0883 32.7393 43.2056 30.6618 43.3982C28.1882 43.6276 25.8499 43.3108 23.8462 41.6676C22.7398 40.7607 21.7578 39.7268 20.7375 38.7283C20.6105 38.604 20.549 38.3514 20.2868 38.4005C20.1406 39.0957 20.4111 39.8128 20.116 40.4848Z" fill="#FFBDB0"/>
<path d="M58.5 55.8138C54.0555 59.0905 45.8543 63.644 40.5165 65.0604C37.6086 65.8321 34.6638 66.302 31.6521 66.5C29.0857 66.6694 26.5561 66.5505 24.0047 66.3293C19.6203 65.9509 15.0498 64.1404 11 62.5C7.97054 61.2735 5.69619 58.8398 3 57C1.26162 55.8138 0.102439 55.1404 0 55.0243C1.37815 54.2553 5.93581 52.059 7.38772 51.4622C10.159 50.323 12.9413 49.2126 15.7085 48.0639C16.0472 47.9232 16.3423 47.9 16.6714 47.9984C16.6933 48.15 16.6905 48.3098 16.7424 48.4505C17.9348 51.6616 20.1912 53.8114 23.3627 55.0243C26.0494 56.0528 28.8262 56.1238 31.6521 55.8138C33.9973 55.5556 36.154 54.8167 38.0648 53.444C39.9374 52.0987 41.3961 50.405 42.1036 48.1541C42.4 47.7662 42.7551 47.7238 43.1963 47.915C47.354 49.7111 54.3382 54.0245 58.5 55.8138Z" fill="#4D83CA"/>
<path d="M44.2658 22.487C43.1171 22.9254 42.8016 24.0563 42.2634 25.0261C42.1364 24.9373 42.0326 24.9004 42.0285 24.8554C41.8127 22.4282 41.0724 20.0749 41.0178 17.6273C41.0041 17.0345 41.011 16.4499 41.1503 15.8558C41.4125 14.7385 40.903 13.8616 40.2447 12.9738C39.5112 11.9849 38.8365 11.4468 37.4392 11.7172C35.6814 12.0573 33.8402 11.9453 32.0414 12.1051C30.9829 12.1994 29.9257 12.2909 28.8671 12.2403C26.0617 12.1065 23.2603 11.9276 20.4658 11.6312C19.776 11.5574 19.1231 11.5642 18.7735 12.3619C18.6342 12.6801 18.3678 12.9615 18.1097 13.2074C17.4172 13.8671 17.297 14.7043 17.465 15.5525C17.8092 17.294 17.5333 18.9986 17.2574 20.6991C17.0484 21.9884 16.7739 23.2669 16.666 24.5713C16.6523 24.7365 16.6264 24.8786 16.4188 24.996C15.7536 24.2435 15.3466 23.2778 14.6104 22.5662C14.4355 21.4694 14.2225 20.3781 14.0941 19.2758C13.7553 16.372 13.3825 13.4682 14.3031 10.5863C15.4285 7.06102 17.4992 4.28424 20.672 2.35429C22.9257 0.982972 25.361 0.212631 28.008 0.0418993C31.3011 -0.169808 34.3456 0.381997 36.938 2.58922C37.1633 2.78044 37.4147 2.91429 37.7739 2.90609C39.0195 2.87878 40.0849 3.36092 41.0137 4.18863C43.363 6.28385 44.4474 9.00736 44.9146 12.0286C45.4186 15.2917 45.1099 18.5205 44.3928 21.7221C44.3368 21.9748 44.3081 22.2329 44.2658 22.487Z" fill="#252E4B"/>
<path d="M42.1017 48.1555C41.3942 50.4064 39.9369 52.0987 38.0629 53.4454C36.1521 54.8181 33.9954 55.557 31.6502 55.8152C28.8243 56.1266 26.0475 56.0542 23.3609 55.0257C20.1907 53.8128 17.933 51.663 16.7406 48.4518C16.6887 48.3112 16.6914 48.1514 16.6696 47.9997C18.0163 47.5955 19.0065 46.7322 19.7455 45.5685C20.1375 44.9512 20.1183 44.2464 20.1033 43.5457C20.0924 43.0554 20.1129 42.565 20.1183 42.0747C20.4338 42.1075 20.5991 42.3574 20.8081 42.5473C21.4227 43.1073 22.0865 43.5976 22.8268 43.9828C25.4138 45.3281 28.1468 45.7693 31.0301 45.3636C33.6089 45.0003 35.9431 44.1248 37.8102 42.2304C37.9577 42.0815 38.1107 41.9408 38.3334 41.9203C38.3566 42.7194 38.3252 43.5225 38.4112 44.3147C38.6106 46.1436 39.9068 47.086 41.3956 47.844C41.6278 47.9588 41.8668 48.0516 42.1017 48.1555Z" fill="#FFBDB0"/>
<path d="M38.3367 41.919C38.114 41.9395 37.9611 42.0802 37.8136 42.229C35.9464 44.1235 33.6122 44.999 31.0335 45.3623C28.1501 45.7693 25.4171 45.3268 22.8301 43.9814C22.0885 43.5962 21.426 43.1059 20.8114 42.5459C20.6038 42.3561 20.4372 42.1061 20.1217 42.0733C20.1203 41.5434 20.1189 41.0134 20.1176 40.4835C20.4126 39.8128 20.1408 39.0958 20.2883 38.3992C20.5505 38.35 20.612 38.6027 20.739 38.727C21.7579 39.7241 22.7414 40.7594 23.8477 41.6663C25.8514 43.3094 28.1897 43.6277 30.6633 43.3968C32.7408 43.2042 34.3252 42.087 35.773 40.6829C36.6061 39.8743 37.3055 38.9182 38.3203 38.3049C38.3244 39.5096 38.3312 40.7143 38.3367 41.919Z" fill="#E67D73"/>
</svg>
